<?xml version="1.0"?>
<svg version="1.1" xmlns="http://www.w3.org/2000/svg" width="450px" height="200px" style="border: dashed 2px #aaa"><path fill="#751975" d="M185.08078125,112.75l0.09375,0.1875q-0.046875,0.046875-0.1875-0.1875q0-0.09375,0.09375-0.09375l0,0.09375q0.09375,0.09375,0.09375,0.375q0,0.46875-0.9140625,1.3125t-1.0078125,1.078125q-0.28125,1.125-0.703125,2.109375q-0.1875,0.75-0.6796875,1.8046875t-1.0078125,1.3828125q-0.234375,0.140625-0.75,0.6328125t-0.890625,0.6796875q-0.28125,0.28125-0.28125,0.515625q0,0.09375,0.046875,0.3046875t0.046875,0.3515625q0,0.1875-0.09375,0.375q-0.234375,0.46875-1.640625,1.171875q-0.375,0.9375-0.984375,0.9375l-0.28125,0q-0.796875,0.984375-1.734375,1.078125q-0.421875,0.046875-0.984375-0.328125t-0.75-0.375q-0.046875,0-0.140625,0.046875t-0.140625,0.046875q-0.140625,0.046875-0.5859375,0.4453125t-0.8203125,0.3515625q-0.75-0.1875-0.796875-0.1875q-0.1875,0-0.46875,0.28125q-0.1875,0.1875-0.46875,0.1875l-0.28125,0l-0.234375,0q-0.09375,0.09375-0.328125,0.28125t-0.328125,0.28125q-0.890625,0.890625-1.546875,0.890625q-0.28125,0-0.375-0.09375q-0.703125-0.234375-0.75-0.234375q-0.140625,0-1.078125,0.234375q-0.1875,0.09375-0.46875,0.09375l-0.5625,0l-0.28125,0q-1.5,0.375-1.546875,0.375l-0.1875,0q-0.328125,0-0.703125-0.1875q-0.28125,0.28125-0.84375,0.28125q-0.140625,0-1.265625-0.28125l-0.28125,0l-0.5625,0q-0.28125,0-0.46875-0.09375l-0.609375,0q-0.28125,0-0.9140625-0.046875t-0.9140625-0.046875q-0.5625,0-0.75,0.09375q-0.09375,0.09375-0.375,0.09375l-0.375,0l-0.28125,0q-0.375,0.1875-0.703125,0.1875q-0.140625,0-0.28125-0.28125q-1.40625,0.46875-2.015625,0.46875q-0.84375,0-1.359375-0.375q-0.9375,0-1.5-0.375q-0.28125,0.28125-0.890625,0.28125q-0.421875,0-0.84375-0.28125l0,0.9375l0,0.46875q0.421875-0.28125,0.65625-0.28125q0.1875,0,0.375,0.1875t0.1875,0.375q0,0.515625-0.375,0.890625q-0.5625,0.65625-0.5625,1.125l0,0.515625q0.09375,0.1875,0.09375,0.9375l0,0.28125q0,0.046875-0.234375,1.0546875t-0.234375,1.3359375q0,0.234375,0.09375,0.234375q0.46875,0.09375,0.46875,0.46875q0,0.515625-0.375,0.75q-0.375,0.375-0.375,0.5625q0,0.046875,0.046875,0.234375t0.046875,0.28125q0.046875,0,0.328125-0.2109375t0.5390625-0.3515625t0.4453125-0.140625q0.28125,0,0.28125,0.421875l0,0.1875q-0.046875,0.140625-0.1640625,0.3046875t-0.328125,0.328125t-0.375,0.2578125t-0.3984375,0.234375t-0.328125,0.1875q-0.09375,0.09375-0.09375,0.28125q0,0.375,0.234375,1.4296875t0.234375,1.1953125q0.09375,0.28125,0.234375,0.9140625t0.234375,0.9140625q0.234375,0.5625,0.375,0.5625l0.703125,0q0.9375,0,0.9375,0.5625l0,0.1875q-0.046875,0.1875,0.9375,0.328125t2.1328125,0.1875t1.2421875,0.09375q0.421875,0.046875,0.8203125-0.046875t0.9140625-0.328125t0.75-0.328125q0.1875-0.09375,0.796875-0.09375q1.359375,0,1.359375,0.703125l0,0.1875q0,0.09375-0.046875,0.28125t-0.046875,0.28125q0,0.375,0.140625,1.3125t0.140625,1.359375q0,0.515625-0.1875,0.890625q0,1.265625-0.609375,2.296875q0,0.515625,0.1875,1.640625q0.046875,0.703125-0.28125,1.171875t-1.0078125,0.65625t-1.2421875,0.234375t-1.3125,0.046875q-1.171875,0-2.015625-0.28125l-0.5625,0l-1.03125,0l-0.328125,0l-0.65625,0l-0.28125,0q-0.1875,0.140625-0.609375,0.1875t-0.65625,0.1875q-0.375,0.1875-0.75,0.1875q-0.140625-0.046875-0.375-0.1875t-0.375-0.1875q-0.609375,0-0.796875-0.09375q-0.9375,0.1875-1.546875,0.1875q-0.375,0.1875-0.5625,0.1875q-0.046875,0-0.1875-0.046875t-0.1875-0.046875q-0.75,0.375-1.171875,0.375q-0.234375,0-0.5625-0.1875t-0.5625-0.1875q-0.28125,0-0.9375-0.1875t-0.984375-0.1875q-0.1875,0-0.5390625-0.046875t-0.5390625-0.046875t-0.65625-0.234375q-0.328125,0.328125-0.75,0.328125l-0.1875,0q-0.1875,0-0.4453125-0.046875t-0.4453125-0.046875l-0.5625,0l-0.28125,0q-0.328125-0.046875-0.984375,0.2109375t-0.9375,0.2578125l-0.28125,0q-0.09375-0.046875-1.828125-0.28125q-0.375,0.09375-1.171875,0.09375l-0.46875,0q-0.1875-0.09375-0.46875-0.09375q-0.140625,0-0.234375,0.0234375l-0.28125,0.0703125l-0.375,0.09375q-0.046875,0-0.140625,0.046875t-0.140625,0.046875q-0.140625,0-0.5625-0.09375t-0.609375-0.09375l-0.1875,0q-0.421875,0.28125-0.65625,0.28125q-0.140625,0-0.421875-0.046875t-0.421875-0.046875l-0.234375,0q-0.421875,0.28125-0.65625,0.28125q-0.140625,0-0.4453125-0.09375t-0.4921875-0.09375q-0.140625,0-0.421875-0.09375t-0.375-0.09375q-0.421875,0.28125-0.84375,0.28125q-0.984375,0-1.828125-0.28125q-0.375-0.09375-0.6328125-0.5625t-0.5390625-0.515625q-0.46875-0.140625-0.46875-0.46875q0-0.46875,0.890625-1.359375q0.09375-0.28125,0.09375-0.75l0-0.75l0-0.609375q0-1.171875,0.1875-1.921875l0-0.28125l0-0.65625l0-0.28125q0-1.125,0.421875-1.640625t1.5-0.65625l0.375,0q0.75,0,1.125,0.1875l0.09375,0q0.140625,0,0.3515625-0.09375t0.3515625-0.09375q0.1875,0,0.515625-0.1640625t0.515625-0.1640625q0.140625,0,0.515625,0.1875q0.328125-0.328125,1.0546875-0.3984375t1.0546875-0.4453125q0.1875-0.1875,0.46875-0.1875q0.609375,0,1.03125,0.84375q0-0.09375,0.09375-0.09375q-0.1875-0.1875-0.1875-0.5625q0-0.5625,0.09375-0.84375q-0.1875-0.09375-0.1875-0.421875t0.609375-0.65625q0.28125-0.703125,0.28125-1.640625l0-0.5625q-0.84375,0.5625-1.171875,0.5625q-0.234375,0-0.375-0.375l-0.09375-0.1875q0-0.1875,0.140625-0.421875t0.3046875-0.3984375t0.3984375-0.375t0.28125-0.2578125q0.515625-0.375,0.515625-1.3125q0-0.46875-0.140625-1.4296875t-0.140625-1.3828125q0-0.09375,0.046875-0.28125t0.046875-0.28125q0-0.046875-0.046875-0.46875t-0.046875-0.609375q0-0.84375,0.1875-1.40625q-0.09375-0.28125-0.09375-1.171875l0-0.375q-0.09375-0.28125-0.09375-0.984375q0-0.5625,0.1875-1.5703125t0.1875-1.1953125l-0.375,0q-1.171875,0-1.171875-0.46875q0-0.234375,0.375-0.375q0.09375-0.046875,0.4453125-0.2109375t0.515625-0.3046875t0.2109375-0.375l0-0.46875l0-0.1875q-0.375-0.65625-0.375-2.90625l0-1.828125q0-0.09375-0.046875-0.28125t-0.046875-0.28125q0-1.921875,0.75-3.234375q-0.46875-1.078125-0.46875-3q0-1.21875,0.28125-1.921875l0-0.65625l0-1.453125q-0.28125-0.5625-0.28125-1.640625q-0.1875-0.46875-0.1875-1.40625l0-1.359375l0-0.5625q-0.421875-2.109375-0.609375-3.1875q-0.140625-0.375-0.5625-0.375q-0.515625,0-1.078125,0.1875l-0.1875,0q-1.125,0-1.125-0.46875q0-0.328125,0.1875-0.421875q0-0.09375-0.1875-0.09375q-0.328125,0-1.359375,0.515625q-0.28125,0-0.6328125-0.2578125t-0.3984375-0.2578125q-0.234375,0-0.7265625,0.09375t-0.7265625,0.09375l-0.28125,0q-0.140625-0.046875-0.5859375,0.046875t-0.5859375,0.09375q-0.234375,0-0.5625-0.328125q-0.890625-0.234375-0.890625-3.140625q0-1.921875,0.328125-2.578125q-0.375,0.1875-0.703125,0.1875q-0.5625,0-0.5625-0.328125l0.1875-0.375q0.1875-0.234375,0.5859375-0.703125t0.5859375-0.703125l0-0.984375l0-0.28125q0-0.1875,0.0703125-0.3515625t0.2109375-0.28125t0.234375-0.1875t0.328125-0.1875t0.28125-0.1640625q0.1875-0.1875,0.984375-0.1875q0.1875,0,0.46875-0.046875t0.46875-0.046875l0.1875,0q0.140625,0,0.328125,0.09375t0.28125,0.09375q0.1875,0,0.375-0.1875q0.375-0.1875,0.65625-0.1875t0.46875,0.09375q0.1875-0.09375,0.703125-0.09375l0.75,0l0.375,0l0.1875,0q0.1875,0,0.6796875,0.09375t0.6796875,0.09375l0.1875,0q0.28125-0.28125,0.65625-0.28125q0.328125,0,0.421875,0.09375q0.140625,0.046875,0.5625,0.0703125t0.5625,0.1171875l0.28125,0q0.234375,0,0.7265625,0.046875t0.6328125,0.046875q1.5,0.1875,2.109375,0.1875q0.328125,0.046875,1.1484375-0.1640625t1.1484375-0.2109375q0.703125,0,1.078125,0.375q0.1875-0.09375,0.46875-0.09375q0.375,0,0.46875,0.09375q0.375-0.1875,0.984375-0.1875q0.1875,0.046875,0.890625-0.0703125t0.9375-0.1171875q0.375,0,0.5625,0.1875q3.234375-0.28125,3.375-0.28125l0.5625,0q0.375-0.1875,0.65625-0.1875q0.328125,0,1.1484375,0.2578125t1.2421875,0.2109375q0.09375,0,0.3515625-0.046875t0.3515625-0.046875q0.28125,0,0.84375,0.046875t0.796875,0.046875q0.46875,0,0.75-0.09375q0.09375,0,0.7265625-0.046875t0.7265625-0.046875q0.984375,0.328125,1.03125,0.375q0.1875-0.09375,0.703125-0.09375l0.28125,0l0.1875,0q0.140625,0,0.3984375-0.09375t0.4453125-0.09375q0.328125,0,0.984375,0.046875t0.9375,0.046875q0.515625,0,1.265625-0.1875q0.1875-0.1875,0.9375-0.1875q1.078125,0,1.828125,0.1875q0.609375,0,1.546875,0.1875q0.140625-0.046875,0.4453125-0.0703125t0.5859375-0.1171875q0.5625-0.1875,0.796875-0.1875l0.46875,0.1875l-0.09375,0.1875l0.1875,0l0.28125,0l0.28125,0q0.421875,0,0.515625,0.09375q1.6875,0,2.859375,0.515625q0.234375,0.09375,0.890625,0.234375t1.1484375,0.3046875t0.6328125,0.3984375q0.375-0.1875,0.703125-0.1875q1.3125,0,2.765625,1.453125q0.234375,0.09375,1.078125,0.75t1.40625,0.65625l0.328125,0l0.375,0q0.75,0,0.75,0.515625l0,0.28125q-0.09375,0.1875-0.09375,0.375q0,0.046875,0.046875,0.0703125t0.1640625,0.09375t0.2578125,0.2109375q0.140625,0.09375,0.5390625,0.4921875t0.6328125,0.4921875l0.09375,0q0.1875,0,0.6328125-0.28125t0.6328125-0.234375q0.46875,0,0.46875,0.421875q0,0.328125-0.890625,1.21875q0.09375,0.09375,0.2109375,0.421875t0.2109375,0.46875q0.46875,0.9375,0.5625,1.40625q1.21875,2.484375,1.453125,3.5625q0.1875-0.09375,0.609375-0.328125t0.609375-0.328125q0.09375-0.09375,0.28125-0.09375q0.515625,0,0.515625,0.375l0,0.1875l0-0.09375l-0.421875,0.46875l0.234375,0.703125q0,0.1875-0.515625,0.5625q-0.046875,0.046875-0.2578125,0.1640625t-0.3984375,0.2578125t-0.1875,0.234375q0.09375,0.375,0.09375,1.171875q0,1.453125,0.28125,2.015625q0.1875,0.5625,0.1875,0.84375q0.28125,0,0.375,0.1875q0,0.046875,0.140625,0.3515625t0.140625,0.3515625l0,0.28125q0,0.28125-0.234375,0.7734375t-0.234375,0.7734375l0,0.09375q0.234375-0.234375,0.46875-0.234375q0.1875,0,0.421875,0.234375z M178.33078125,113.03125q0.09375-0.046875,0.5625-0.2578125t0.9140625-0.421875t0.9140625-0.46875t0.75-0.515625t0.234375-0.4453125q-1.59375,1.125-3.375,2.109375z M181.42453125,107.546875l0-0.28125q-4.546875,3.140625-13.6640625,9.46875t-13.7109375,9.515625q0.515625,0.046875,1.1953125-0.2578125t1.4296875-0.8203125t1.03125-0.65625q0.703125-0.375,1.9921875-1.1015625t1.9453125-1.1015625q7.359375-4.453125,9.421875-5.71875q0.984375-0.609375,2.6953125-1.6875t3.1171875-1.9921875t2.625-1.7109375q1.921875-0.984375,2.109375-1.640625q-0.09375-0.328125-0.1171875-1.078125t-0.0703125-0.9375z M176.22140625,115.796875l-0.28125,0.1875q0.09375-0.09375,0.28125-0.1875q-0.234375,0.140625-0.65625,0.3984375t-0.65625,0.3984375l0.421875-0.2109375t0.4921875-0.3046875t0.3984375-0.28125z M146.64328125,126.4375q0.046875-0.046875,0.140625-0.09375t0.09375-0.09375t-0.046875-0.140625t-0.046875-0.140625q0-0.09375,0.1875-0.28125l0.1875-0.09375q0.234375,0,0.5859375,0.3046875t0.4453125,0.3515625l0.46875,0q0.515625,0,1.265625-0.1875q2.296875-0.515625,5.765625-2.578125q3.421875-1.875,9.140625-5.765625q0.9375-0.703125,1.9921875-1.4296875t2.3671875-1.6171875t2.0625-1.453125q3.46875-2.484375,4.875-3.5625q0.375-0.234375,1.546875-1.0078125t2.390625-1.640625t1.171875-1.0078125q-6.609375,3.890625-9.046875,5.390625q-2.8125,1.640625-5.34375,3.28125q-0.328125,0.140625-1.359375,0.75q-0.84375,0.5625-1.078125,0.84375q0,0.046875,0.046875,0.2109375t0.046875,0.2109375q0,0.796875-0.84375,1.3125q-0.1875,0.140625-0.5390625,0.5390625t-0.6796875,0.65625t-0.703125,0.3515625q-0.046875,0-0.1875,0.046875t-0.1875,0.046875q-1.03125,0-1.359375-0.65625q-0.09375-0.09375-0.1875-0.09375l-0.375,0l-0.1875,0q-0.140625,0.09375-0.2109375,0.328125t-0.1640625,0.328125q-0.1875,0.234375-0.6328125,0.328125t-0.5390625,0.140625q-0.140625,0.046875-0.609375,0.2578125t-0.84375,0.3046875t-0.65625,0.046875q-0.1875,0-0.703125-0.1640625t-0.75-0.1640625q-0.375,0-0.5625,0.1875q-3.703125,2.625-8.0625,5.953125l1.125,0z M129.20578125,137.40625q0.890625-0.65625,2.765625-2.0625t2.8125-2.0625q-0.234375,0.140625-0.9375,0.4921875t-1.1015625,0.5390625t-1.0078125,0.421875t-1.171875,0.3515625t-1.078125,0.1171875q-0.46875,0-0.46875,1.03125q0,0.609375,0.1875,1.171875z M146.08078125,92.359375q-0.421875,0.140625-0.9609375,0.515625t-1.171875,0.9140625t-0.8203125,0.6796875q0.234375-0.140625,1.5-0.9140625t2.015625-1.1015625q0-0.09375-0.1875-0.09375l-0.28125,0l-0.09375,0z M142.14328125,93.625l-0.84375,0.5625q-0.09375,0,1.03125-0.65625q-0.09375,0-0.1875,0.09375q-2.34375,1.40625-6.5859375,4.2421875t-5.9765625,3.9140625q-0.75,0.375-0.75,0.65625l0.046875,0.234375q0.046875,0.234375,0.046875,0.46875q0.1875,0.46875,0.1875,1.734375q0.09375,0.375,0.09375,1.3125l0,1.453125q3.1875-2.484375,9.5859375-7.4765625t9.5859375-7.4765625q-0.328125-0.046875-0.8671875,0.2109375t-1.265625,0.75t-0.8203125,0.5390625q-1.734375,1.03125-4.21875,2.71875q-1.265625,0.796875-2.6953125,1.7578125t-3.1875,2.15625t-2.6953125,1.8515625q-0.046875,0.046875-0.5625,0.421875l-0.7734375,0.5625t-0.703125,0.375t-0.7265625,0.140625q-0.5625,0-0.5625-0.28125q0-0.140625,0.1875-0.3515625t0.3984375-0.375t0.4453125-0.3515625l0.1875-0.140625q2.625-2.015625,7.6171875-5.6484375t6.7265625-4.9453125q-0.375,0.09375-0.84375,0.328125t-1.1015625,0.6796875t-0.7734375,0.5390625z M175.09640625,96.109375l-1.078125,0.609375q0,0.046875,0.28125-0.09375t0.5390625-0.3046875t0.2578125-0.2109375q-4.546875,2.53125-10.078125,6.234375q0.75,0.84375,1.3125,2.015625q0.984375-1.5,2.4140625-2.765625t3.7265625-2.953125t3-2.25q-0.046875-0.046875-0.1875-0.140625t-0.1875-0.140625z M176.50265625,97.09375q-0.234375-0.09375-0.609375,0.09375t-0.890625,0.5859375t-0.9140625,0.7265625t-0.8671875,0.75t-0.5625,0.515625q2.90625-1.78125,4.265625-2.296875q-0.046875-0.09375-0.234375-0.234375z M178.94015625,99.390625q0.046875,0.046875-1.40625,1.125t-3.0703125,2.2734375t-1.8046875,1.3828125q-0.5625,0.375-1.1484375,0.84375t-1.2890625,1.0546875t-1.078125,0.9140625q-0.984375,0.65625-1.640625,1.3125l0,0.515625l0,0.1875q4.640625-2.71875,5.953125-3.5625q1.921875-1.21875,3.5625-2.203125q2.203125-1.828125,2.765625-1.828125q-0.09375-0.328125-0.421875-1.0078125t-0.421875-1.0078125z M167.31515625,107.171875q-0.046875-0.09375,1.0078125-0.9140625t2.3671875-1.8046875t1.40625-1.03125q0.9375-0.703125,2.8828125-2.1796875t2.8828125-2.2265625q-0.5625,0.328125-7.96875,4.59375q-3.140625,1.59375-3.046875,1.921875q0.46875,0.609375,0.46875,1.640625z M174.81515625,99.578125q1.640625-0.9375,1.875-1.078125q-0.421875,0.1875-1.875,1.078125z M167.03390625,111.578125q0.09375-0.1875,0.609375-0.609375t1.21875-0.9375t0.84375-0.65625q3.09375-2.296875,4.21875-3.1875q-2.15625,1.40625-5.15625,3.1875q-0.84375,0.46875-1.1484375,0.84375t-0.5859375,1.359375z M164.22140625,101.40625q0.703125-0.515625,1.921875-1.546875q-0.890625,0.65625-2.296875,1.265625q0.09375,0,0.375,0.28125z M163.00265625,100.328125l0.09375-0.1875q-0.09375,0-0.09375,0.1875q0.46875-0.890625,1.3359375-1.78125t2.0625-1.8984375t1.6640625-1.4765625q-2.71875,1.96875-7.078125,4.59375q0.046875,0.09375,0.46875,0.2109375t0.9375,0.2109375t0.609375,0.140625z M158.26828125,101.3125q-0.28125-0.046875-0.890625,0.2109375t-0.9375,0.2578125l-0.1875,0q-0.65625,0-0.65625-0.5625q-0.1875-0.09375-0.46875-0.09375l-0.609375,0q-1.125,0-1.59375-0.1875q-0.140625-0.09375-0.6328125-0.2578125t-0.6328125-0.2578125q-0.09375,0-0.3046875,0.046875t-0.3515625,0.046875q-0.328125,0-0.421875-0.09375l-0.1875,0q-0.1875,0-0.5625,0.046875t-0.5625,0.046875q-0.421875,0-0.609375-0.09375q-0.796875,0.515625-1.125,0.515625l-0.46875,0q-0.234375,0-0.65625-0.046875t-0.515625-0.046875q-0.421875,0-0.65625,0.5625q0,0.140625-0.046875,0.421875t-0.046875,0.421875q0,0.1875,0.046875,0.515625t0.046875,0.46875q0.09375,0,0.46875-0.09375t0.5625-0.09375q0.703125,0,0.703125,0.46875q-0.09375,0.09375-0.09375,0.1875q-0.046875,0.1875-0.3515625,0.421875t-0.7265625,0.421875t-0.46875,0.234375l0,1.03125q0,1.359375,0.1875,1.359375q0.28125,0.09375,0.28125,0.375q0,0.1875-0.140625,0.65625t-0.140625,0.703125l0,0.1875q0.1875,0.375,0.1875,1.640625q0,1.125-0.09375,1.59375q0.046875,0.328125-0.0703125,1.3359375t-0.1171875,1.2890625q0,0.5625,0.1875,0.65625q0.28125,0.09375,0.28125,0.375q0,0.515625-0.5625,0.796875q-0.1875,0.1875-0.1875,0.65625l0,0.46875l0,0.1875q0,0.1875,0.5625,0.1875q1.265625,0,2.390625-0.375q0.5625-0.1875,1.171875-0.1875q0.5625,0,0.75,0.1875q0.5625-0.1875,1.171875-0.1875q0.65625,0,0.84375,0.1875q0.09375,0,0.375-0.046875t0.421875-0.046875q0.65625,0,1.21875,0.1875l0.1875,0.09375q0.140625,0,0.3515625-0.09375t0.3515625-0.09375l0.1875,0q0.28125-0.046875,0.8671875-0.09375t1.0546875-0.140625t0.75-0.328125q0.28125-0.28125,0.5625-0.28125q0.1875,0,0.5859375,0.140625t0.5859375,0.140625q0.09375,0,0.46875-0.1875q0.234375-0.140625,0.7265625-0.375t0.84375-0.4921875t0.5390625-0.5859375q0.234375-0.421875,0.9375-1.1484375t0.890625-1.4296875q0.234375-1.171875,0.5625-1.828125l0-0.1875q0-0.140625-0.09375-0.3515625t-0.09375-0.3515625q0-0.1875,0.1875-0.5625q0.09375-0.140625,0.890625-0.9375q0-0.09375-0.046875-0.375t-0.046875-0.421875q-0.09375-0.1875-0.1875-0.796875t-0.1875-0.84375q-0.234375-0.46875-0.609375-1.40625q-0.140625-0.28125-0.515625-0.7734375t-0.515625-0.7734375q-0.09375,0.046875-0.3984375,0.28125t-0.5859375,0.375t-0.46875,0.09375q-0.375,0-0.375-0.375q0-0.1875,0.1875-0.375q0.046875-0.140625,0.9375-0.75q-0.890625-0.890625-4.3125-1.453125z M143.40890625,126.671875l1.21875-0.890625l-1.21875,0.890625q1.6875-1.171875,4.7109375-3.421875t3.7265625-2.765625q-0.28125-0.046875-0.84375,0.3046875t-1.21875,0.890625t-0.796875,0.6328125q-0.5625,0.328125-1.1953125,0.7265625t-1.359375,0.890625t-1.1015625,0.7265625q-3.515625,2.296875-8.15625,4.96875q-4.875,3-7.03125,3.65625q-0.09375,0-0.234375,0.0234375t-0.2109375,0.0234375t-0.1640625,0.0234375t-0.140625,0.0703125t-0.09375,0.1640625t-0.09375,0.2578125q0,0.46875,0.5625,0.46875q0.328125,0,1.171875-0.28125q1.078125-0.375,2.2734375-0.9375t2.0390625-1.03125t2.203125-1.3359375t1.9453125-1.265625t2.109375-1.4765625t1.8984375-1.3125z M144.15890625,120.625l-0.5625,0.46875q0,0.046875,0.1640625-0.046875t0.3046875-0.234375t0.09375-0.1875q-1.40625,1.078125-4.5234375,3.1171875t-5.390625,3.8203125t-3.9140625,3.796875q1.359375-1.03125,2.953125-2.109375t2.8359375-1.828125t3.28125-1.8515625t3-1.59375t3.3515625-1.7109375t3.046875-1.546875q-0.703125-0.234375-0.984375-0.234375q-0.328125,0.234375-0.75,0.234375q-0.1875-0.09375-0.421875-0.09375q-0.09375,0-0.375,0.09375q-0.09375,0-0.46875,0.046875t-0.5625,0.046875q-0.515625,0-1.078125-0.1875z M145.14328125,123.671875q-0.234375,0.140625-0.515625,0.28125l-0.375,0.1875t-0.09375,0.09375q0.421875-0.1875,0.984375-0.5625q-10.21875,5.390625-13.921875,8.15625q1.40625-0.609375,2.7890625-1.3359375t3.0234375-1.734375t2.5546875-1.546875t2.953125-1.875t2.6015625-1.6640625z M143.22140625,106.28125q0-0.046875-0.046875-0.140625t-0.046875-0.140625q-0.984375,0.5625-4.3125,2.71875q0.09375-0.09375,0.6796875-0.421875t1.453125-0.6796875t1.3828125-0.3515625q0.703125,0,0.703125,0.5625q0,0.046875-0.046875,0.140625t-0.046875,0.140625q0.375-0.234375,0.375-0.84375q0-0.140625-0.046875-0.4921875t-0.046875-0.4921875z M157.42453125,96.484375q-1.171875,0.75-1.171875,0.890625q0.421875-0.234375,1.171875-0.890625q-0.609375,0.328125-1.8046875,1.078125t-1.7578125,1.078125l0.375,0.1875q0.09375,0,0.28125-0.140625t0.328125-0.1875l0.1875,0q0.140625,0,0.3984375,0.0703125t0.3515625,0.0703125l0.1875,0l0-0.234375q0-0.28125,0.1875-0.5859375t0.375-0.4921875t0.515625-0.4921875t0.375-0.3515625z M143.03390625,102.859375l0-0.421875q-1.640625,1.828125-5.484375,5.109375q1.453125-0.984375,4.6875-2.859375q0.890625-0.515625,0.890625-1.078125q0-0.046875-0.046875-0.28125t-0.046875-0.46875z M141.67453125,108.296875q-0.328125,0.09375-0.609375,0.2109375t-0.375,0.2109375l-0.09375,0.09375l0.09375,0q0.328125,0,0.984375-0.515625q-0.984375,0.328125-4.59375,2.4375q-0.65625,0.375-1.8515625,1.1484375t-1.8046875,1.1484375q-0.140625,0.09375-1.1484375,0.703125t-1.8515625,1.1953125t-0.84375,0.7734375q1.265625-0.84375,5.6484375-3.234375t6.4453125-4.171875z M129.39328125,113.96875l0.09375-0.09375z M129.48703125,118.375l0,0.234375q10.03125-7.171875,12.5625-8.953125q-1.734375,0.9375-7.265625,4.3125q-0.75,0.421875-2.0390625,1.2890625t-1.6171875,1.1015625q-0.140625,0.09375-0.421875,0.2578125t-0.421875,0.2578125t-0.328125,0.28125t-0.28125,0.375q0,0.46875-0.1875,0.84375z M143.40890625,109.75q-1.21875,0.9375-3.796875,2.765625t-3.796875,2.71875q2.671875-1.640625,4.6875-2.71875q0.328125-0.1875,0.75-0.421875t0.9609375-0.5390625t0.8203125-0.4453125q0.375-0.234375,0.375-0.609375l0-0.46875l0-0.28125z M158.17453125,98.921875q1.171875-0.9375,3.5859375-2.90625t3.6328125-2.953125q-1.453125,0.796875-3.9609375,2.859375t-3.7265625,2.8125q0.28125,0,0.46875,0.1875z M160.37765625,95.546875l0.515625-0.375q-0.703125,0.46875-0.703125,0.5625q0-0.09375,0.1875-0.1875q0.421875-0.28125,1.59375-1.1953125t1.875-1.3828125q-0.46875-0.046875-1.171875,0.3984375t-1.640625,1.2890625t-1.03125,0.890625q-1.6875,1.3125-2.484375,2.109375q1.546875-0.9375,2.859375-2.109375z M142.14328125,100.84375l-1.125,0.5625q0,0.046875,0.28125-0.0703125t0.5625-0.28125t0.28125-0.2109375q-2.8125,1.453125-8.71875,5.25q-0.140625,0.09375-2.484375,1.640625q-0.515625,0.28125-1.546875,1.078125q0,0.09375,0.046875,0.3046875t0.046875,0.3515625q0.1875,1.125,0.1875,1.828125q0,0.984375-0.1875,1.453125q4.171875-3.09375,9-7.3125q3.5625-3.140625,4.546875-4.40625q-0.09375,0-0.3046875,0.046875t-0.3046875,0.046875q-0.1875,0-0.28125-0.28125z M129.20578125,123.296875l0.28125-0.1875l-0.28125,0.1875q1.125-0.890625,3.28125-2.5078125t3.515625-2.671875t3.1171875-2.6015625t3.1171875-3q-2.34375,1.3125-8.53125,5.015625q-0.75,0.375-2.109375,1.1953125t-2.109375,1.1953125q-0.46875,0.234375-0.46875,1.359375q0,1.078125,0.1875,2.015625z M143.40890625,112.65625l-0.46875,0.5625l0.46875-0.5625q-0.890625,1.171875-2.2265625,2.4140625t-2.3203125,2.015625t-2.765625,2.109375t-2.484375,1.8984375q0.609375-0.375,3.0234375-1.7578125t3.6796875-2.1796875q0.5625-0.28125,1.5234375-0.84375t1.1953125-0.703125q0.375-0.1875,0.375-2.953125z M142.94015625,118.609375q-2.203125,1.640625-6.5859375,4.921875t-6.5859375,4.921875q2.953125-0.796875,6.890625-3.796875q1.59375-1.21875,5.296875-3.75q0.09375-0.09375,0.4453125-0.2578125t0.5390625-0.3515625t0.1875-0.375q-0.09375-0.09375-0.09375-0.1875q-0.09375-0.1875-0.09375-0.5625l0-0.5625z M131.50265625,128.875q-0.890625,0.46875-0.890625,0.5625q0.1875,0,0.890625-0.5625q-0.09375,0.046875-0.6328125,0.1875t-1.0546875,0.28125t-0.515625,0.1875q-0.1875,0.5625-0.1875,1.171875q0,0.46875,0.09375,0.65625q0.5625-0.9375,2.296875-2.484375z M143.03390625,128.265625q-1.734375,1.265625-5.25,3.890625t-5.25,3.890625q1.546875-0.984375,7.03125-4.3125q0.46875-0.28125,1.4296875-0.8671875t1.4296875-0.8671875q0.609375-0.375,0.609375-0.75l0-0.5625l0-0.421875z M152.83078125,126.0625l0.09375-0.09375z M180.62765625,103.421875q-0.140625-0.140625-0.2578125-0.5625t-0.2109375-0.515625q-0.421875,0.75-1.1484375,1.40625t-2.0390625,1.5234375t-1.5,1.0078125q-6.515625,4.640625-8.625,6.84375q5.859375-3.421875,5.953125-3.46875q1.171875-0.75,3.421875-2.0859375t3.09375-1.8515625q0.09375-0.046875,0.609375-0.28125t0.796875-0.46875t0.234375-0.515625l-0.09375-0.421875q-0.140625-0.375-0.234375-0.609375z M171.62765625,93.8125l-0.09375,0l0.09375,0l-0.09375,0q-0.09375,0-0.28125-0.046875t-0.28125-0.046875q-0.234375,0-0.328125,0.1875q-0.234375,0.234375-0.65625,0.6796875t-0.65625,0.6796875q-1.40625,1.40625-4.5,4.3125q0.84375-0.421875,2.3671875-1.359375t1.8515625-1.125q0.375-0.234375,1.1953125-0.7734375t1.1953125-0.7734375q1.3125-0.65625,1.453125-0.65625q0.28125,0,0.28125,0.28125l0,0.1875q-0.046875,0.234375-0.328125,0.515625t-0.796875,0.609375l-0.515625,0.328125q-0.28125,0.234375-0.8671875,0.65625t-0.8671875,0.65625q0.28125-0.1875,1.8984375-1.125t2.5078125-1.453125q-0.9375-0.84375-2.578125-1.734375z M167.69015625,93.0625l-0.09375,0l0.09375,0q-0.140625,0-0.3046875-0.046875t-0.2578125-0.046875t-0.1875,0.09375q-0.1875,0.1875-0.890625,0.65625q-0.421875,0.375-1.3359375,1.1015625t-1.3359375,1.1015625q-0.703125,0.5625-2.0390625,1.59375t-1.9921875,1.59375q0.140625,0,0.3046875,0.046875t0.2578125,0.046875q0.1875,0,0.28125-0.09375q0.28125-0.140625,0.984375-0.609375q0.375-0.234375,1.1484375-0.703125t1.1484375-0.703125q3.890625-2.484375,5.484375-3.65625q-0.09375,0-0.5390625-0.1875t-0.7265625-0.1875z M151.09640625,92.6875l-0.09375,0l0.09375,0l-0.28125,0l-0.421875,0q-0.46875,0-0.65625,0.1875q-0.09375,0.046875-0.5390625,0.375t-0.7265625,0.5625q-0.75,0.609375-4.40625,3.375q-2.296875,1.921875-7.078125,5.578125q3.84375-2.34375,4.6875-2.71875q0.5625-0.28125,1.265625-0.5625q0.1875-0.09375,0.3984375-0.5390625t0.4453125-0.6328125q0.1875-0.1875,0.5625-0.1875l0.1875,0q0.28125,0,0.65625-0.1171875t0.515625-0.1640625q0.703125-0.140625,2.296875-1.359375l5.765625-3.515625l-0.84375-0.1875q-0.890625-0.1875-1.265625-0.1875t-0.5625,0.09375z M141.76828125,92.59375l-0.09375,0l0.09375,0q-0.28125,0.09375-1.453125,0.09375l-0.5625,0q-1.453125,0.609375-1.828125,0.9375q-1.359375,0.984375-4.78125,3.5625q-1.265625,1.03125-3.28125,2.765625q-1.5,0.984375-1.359375,1.359375q2.0625-1.265625,6.5859375-4.265625t6.9609375-4.453125l-0.28125,0z M118.94015625,97.46875q0.46875-0.84375,1.4765625-2.4375t1.4765625-2.4375q-0.984375,0.703125-2.203125,1.3125q-0.46875,0.28125-0.46875,0.796875q0,0.375-0.09375,0.5625l0,0.28125q0,0.28125-0.09375,0.84375t-0.09375,0.796875l0,0.28125z M124.37765625,92.453125l0.09375,0l-0.09375,0l-0.1875,0q-0.234375,0-0.46875-0.09375t-0.28125-0.09375t-0.375,0.328125q-0.1875,0.28125-0.5390625,0.84375t-0.5390625,0.84375q-0.28125,0.421875-1.921875,3.09375q1.40625-0.796875,4.171875-2.4375t4.171875-2.484375q-0.65625-0.09375-2.015625-0.09375t-2.015625,0.09375z M128.22140625,99.578125l0.375-0.28125q-0.09375,0.09375-0.375,0.28125q-0.1875,0.09375-0.1875,0.1875l0.1875,0.375q0.46875-0.46875,1.5234375-1.359375t1.2890625-1.125q-1.3125,1.03125-2.8125,1.921875z M129.29953125,124.75q0,0.1875,0.09375,0.28125q0.515625-0.28125,2.109375-1.1015625t2.34375-1.1953125t2.1328125-1.171875t2.2734375-1.3828125t1.96875-1.40625t1.921875-1.6171875q-1.265625,0.796875-3.6796875,2.1796875t-3.0234375,1.7578125q-0.75,0.421875-2.203125,1.2890625t-2.203125,1.2890625q-1.6875,0.84375-1.734375,1.078125z M134.45578125,123.765625q-3.46875,2.0625-3.75,2.203125q-0.1875,0.09375-0.421875,0.234375t-0.328125,0.1875t-0.2109375,0.1640625t-0.1640625,0.2109375t-0.0703125,0.28125t-0.0234375,0.46875q0.796875-0.65625,2.4609375-1.8984375t2.5078125-1.8515625z M129.29953125,141.71875l0.09375,0l-0.09375,0l0,0.28125l0,0.1875q4.078125-2.53125,9-6.046875q0.140625-0.09375,0.796875-0.515625t1.3359375-0.8671875t1.3828125-0.9609375t1.125-0.9609375t0.375-0.6328125q-1.359375,0.796875-4.1015625,2.4140625t-4.1484375,2.4140625q-0.421875,0.234375-2.15625,1.21875t-2.671875,1.453125q-0.5625,0.375-0.703125,0.5390625t-0.140625,0.6328125t-0.09375,0.84375z M142.94015625,140.078125l-0.421875,0.09375l0.421875-0.09375q-1.921875,0.65625-6.28125,3.1875q2.765625-1.3125,4.265625-2.109375q0.046875-0.046875,0.984375-0.46875t1.03125-0.609375z M135.15890625,142.890625l0.84375-0.515625l-1.546875,0.890625q0.234375-0.09375,0.703125-0.375q2.015625-1.078125,4.6875-2.71875q2.953125-1.453125,3-1.921875q-3.09375,1.40625-8.484375,4.921875q-1.359375,0.9375-3.046875,1.828125q-0.09375,0.046875-0.65625,0.3046875t-0.890625,0.421875t-0.7265625,0.4453125t-0.5390625,0.5625q0.46875-0.28125,6.65625-3.84375z M127.19015625,149.125q-0.1875,0.09375-0.1875,0.1875l0.375-0.28125l-0.1875,0.09375q-0.375,0.234375-1.1015625,0.703125t-1.1015625,0.703125q2.765625-1.640625,4.59375-2.671875q-0.375,0.1875-1.1953125,0.6328125t-1.1953125,0.6328125z M142.61203125,136.9375q0.09375,0,0.09375,0.09375q0-0.09375-0.09375-0.09375z M143.50265625,133.5625q0.046875,0.09375-1.0078125,0.84375t-2.34375,1.6171875t-1.3359375,0.9140625q2.15625-1.21875,3.328125-1.921875q0.09375-0.09375,0.375-0.09375q0.328125,0,0.421875,0.1875l0.09375,0.1875q0,0.1875-0.1640625,0.3515625t-0.46875,0.3046875t-0.3515625,0.1875q-0.328125,0.1875-1.3828125,0.890625t-1.6640625,1.03125q-0.234375,0.1875-2.578125,1.734375t-3.5625,2.390625q-0.09375,0.046875-0.8203125,0.4921875t-1.3359375,0.8203125t-1.1484375,0.8203125t-0.5390625,0.6796875q0.796875-0.1875,1.6171875-0.65625t1.8515625-1.21875t1.5-1.03125q4.5-2.765625,5.109375-3.234375q0.515625-0.328125,1.7109375-1.3359375t1.8984375-1.3828125q0.375-0.140625,0.515625-1.265625t0.28125-1.3125z M121.79953125,149.3125l-0.09375,0l0.1875,0l-0.09375,0q-2.671875-0.1875-2.671875,1.640625q0,0.375,0.09375,0.65625q0.609375-0.375,1.6640625-1.1484375t1.6640625-1.1484375l-0.1875,0l-0.375,0l-0.1875,0z M122.78390625,154.703125l0.46875,0q1.125,0,2.953125-1.453125q0.84375-0.65625,2.578125-1.9453125t2.625-1.8984375q1.359375-1.078125,4.21875-3.234375t4.21875-3.1875q-3.375,1.96875-10.1953125,5.90625t-10.2421875,5.90625l1.640625,0.09375q0.375-0.1875,1.3125-0.1875l0.421875,0z M129.29953125,154.46875l-0.09375,0l0.09375,0q0.234375,0,0.8203125-0.140625t0.8203125-0.140625t0.375,0.09375t0.1875,0.09375q0.09375,0,0.375-0.28125q0.140625-0.09375,0.375-0.328125t0.375-0.328125q0.65625-0.5625,1.9921875-1.6640625t2.0390625-1.6171875q0.515625-0.421875,1.6171875-1.3125t1.734375-1.40625t1.5-1.3125t1.5234375-1.5q-0.75,0.28125-1.59375,0.7265625t-1.8515625,1.0078125t-1.5703125,0.84375q-4.40625,2.625-11.203125,7.078125l0.5625,0q1.359375,0,1.921875,0.1875z M137.36203125,154.1875q0.28125,0,0.46875,0.046875l0.1875,0.046875q0.09375,0,0.5625-0.46875q1.359375-1.359375,1.921875-2.015625q0.515625-0.5625,1.5234375-1.59375t1.5703125-1.546875q-5.390625,2.765625-9.703125,5.625q0.046875,0,0.140625,0.046875t0.140625,0.046875q0.234375,0,0.609375-0.140625t0.5625-0.140625t0.5625,0.1875q0.1875-0.09375,0.65625-0.09375l0.796875,0z M145.33078125,148.140625q-1.21875,1.21875-3.75,3.9375q2.953125-2.15625,5.296875-3.65625q-0.84375,0-1.546875-0.28125z M154.70578125,149.5q0,0.046875-1.40625,1.0546875t-2.9765625,2.15625t-1.8515625,1.3828125q0.140625,0,0.328125,0.09375t0.28125,0.09375l0.375-0.1875q0.234375-0.140625,0.6796875-0.421875t0.6796875-0.421875q1.875-1.265625,2.578125-1.640625q0.65625-0.375,0.8671875-0.5625t0.3515625-0.5625t0.09375-0.984375z M139.65890625,154.796875q1.734375-0.234375,2.203125-0.609375q1.453125-1.078125,2.203125-1.734375q0.75-0.609375,2.2265625-1.8046875t2.1796875-1.8046875q-0.75,0.140625-1.5234375,0.5625t-1.9453125,1.3125t-1.3125,0.984375q-3.09375,2.296875-4.40625,3.09375q0.046875,0,0.09375,0.046875t0.09375,0.046875z M144.44015625,154.375l0.515625-0.28125l-0.515625,0.28125q0.5625-0.328125,1.59375-1.0546875t1.59375-1.0546875q-1.171875,0.5625-3.9375,2.203125l0.09375,0q0.09375,0,0.234375-0.046875t0.234375-0.046875l0.1875,0z M148.47140625,152.78125q-1.359375,0.984375-2.203125,1.5q0.703125,0,1.546875-0.84375q1.21875-1.03125,1.828125-1.453125q-0.1875,0.140625-0.5859375,0.3984375t-0.5859375,0.3984375z M153.86203125,154.375q0.28125,0,0.28125-0.46875q0-0.140625-0.046875-0.4921875t-0.046875-0.5390625q0-0.421875,0.1875-0.796875q-0.609375,0.375-1.7109375,1.1484375t-1.7109375,1.1484375l1.40625,0l0.609375,0l1.03125,0z M138.01828125,150.15625l1.734375-1.125q0-0.046875-0.234375,0.0703125t-0.65625,0.3984375t-0.84375,0.65625q4.03125-2.53125,5.203125-3.140625q0.75-0.375,0.75-0.703125q0-0.28125-0.09375-0.5625q0-0.09375-0.046875-0.28125t-0.046875-0.28125q-1.3125,1.40625-5.765625,4.96875z M143.12765625,141.71875q0,0.140625-0.609375,0.5390625t-0.84375,0.5390625q-1.96875,1.59375-3,2.203125q-0.75,0.609375-2.296875,1.78125t-2.296875,1.734375q4.78125-3,7.5-4.3125q0.375-0.1875,1.546875-0.65625q0.1875,0,0.1875-0.375q0-0.234375-0.09375-0.796875t-0.09375-0.65625z M135.44015625,135.671875q0.703125-0.421875,2.1796875-1.2421875t2.2265625-1.2421875q0.140625-0.09375,0.6328125-0.3046875t0.9375-0.4453125t0.890625-0.515625t0.6796875-0.5859375t0.140625-0.5390625q-1.3125,0.796875-3.8671875,2.4375t-3.8203125,2.4375z M158.97140625,126.0625q0.046875,0.09375,0.375-0.1875q-0.09375,0.09375-0.375,0.1875q-0.375,0.140625-0.890625,0.46875q0.09375,0,0.28125,0.0703125t0.28125,0.0703125q0.5625,0,1.0546875-0.2578125t1.21875-0.9140625t0.9140625-0.84375q-0.46875,0.234375-1.4296875,0.703125t-1.4296875,0.703125z M165.95578125,125.5q0.140625,0,0.4921875-0.046875t0.4921875-0.046875q0.375,0,0.5625,0.1875q1.171875-0.796875,1.546875-1.078125q2.53125-1.640625,4.3125-2.953125q0.515625-0.375,1.8984375-1.265625t2.15625-1.453125t1.7578125-1.4296875t1.59375-1.7109375q-3,1.78125-18.09375,10.453125l0.421875,0l0.75,0l0.46875,0q0.234375-0.046875,0.75-0.3515625t0.890625-0.3046875z M174.48703125,123.015625l-0.1875,0.09375l0.1875-0.09375q-0.046875,0-0.28125,0.140625t-0.515625,0.3046875t-0.328125,0.2109375q-0.28125,0.1875-0.9140625,0.5859375t-0.9140625,0.5859375q0.703125,0.046875,1.734375-0.84375t1.21875-0.984375z M276.33421875,153.4375q0,0.140625,0.046875,0.4921875t0.046875,0.5390625q0,1.5-0.5625,1.828125q-0.515625,0.984375-2.015625,0.984375q-0.5625,0-0.84375-0.28125q-0.375,0.375-0.703125,0.375l-0.84375-0.28125l-0.375,0l-0.890625,0l-0.375,0q-0.1875,0-0.3984375-0.09375t-0.3515625-0.09375l-0.234375,0q-0.09375,0.09375-0.375,0.09375q-0.09375,0-0.3515625-0.046875t-0.3984375-0.046875l-2.109375,0l-1.078125,0q-0.75,0.375-1.125,0.375q-0.515625,0-0.796875-0.28125q-0.1875,0.1875-0.5625,0.1875q-0.09375,0-0.2578125-0.046875t-0.2109375-0.046875l-0.890625,0q-0.84375,0-1.125-0.1875q-0.5625,0.1875-1.359375,0.1875q-0.5625,0-1.125-0.1875l-0.234375,0q-0.1875,0-0.4921875-0.09375t-0.4453125-0.09375q-0.28125,0-0.375,0.09375q-0.1875,0.09375-0.375,0.09375l-0.609375,0l-0.28125,0q-0.1875,0.09375-0.46875,0.09375q-0.421875,0-0.984375-0.1875q-0.5625,0.375-1.125,0.375q-0.375,0-0.46875-0.09375l-0.421875,0q-0.234375,0-0.65625,0.046875t-0.65625,0.046875q-0.609375,0-0.890625-0.1875q-0.328125,0-1.1015625-0.140625t-1.1015625-0.140625l-0.9375,0q-0.703125,0-0.984375-0.09375l-0.1875,0q-0.140625,0-0.421875-0.0703125t-0.421875-0.0703125q-0.421875,0.421875-0.984375,0.421875q-0.5625-0.1875-0.75-0.1875q-0.421875,0.28125-0.890625,0.28125l-0.375,0l-1.03125,0l-0.609375,0q-0.75-0.234375-0.75-1.546875q0-1.359375,0.375-2.296875q-0.65625,0.65625-0.9375,0.65625q-0.375,0-0.375-0.375t0.375-0.75q0.9375-1.21875,0.9375-1.265625q-0.09375-0.1875-0.09375-0.890625q-0.28125-0.84375-0.28125-1.875q0-1.78125,0.65625-1.921875q0.796875-0.609375,1.734375-0.609375q0.421875,0,0.609375,0.09375l0.1875,0q0.28125,0,0.46875,0.1875q0.515625-0.140625,0.84375-0.46875q0.09375-0.09375,0.421875-0.09375t0.65625,0.46875q0.140625-0.140625,1.0546875-0.3515625t1.1484375-0.2109375q0.1875,0,0.46875-0.3046875t0.609375-0.6796875t0.46875-0.46875q-0.046875-0.28125-0.28125-0.9609375t-0.234375-1.0546875q-0.234375-0.46875-0.375-0.46875l-0.1875,0.046875q-0.140625,0.046875-0.375,0.046875l-0.28125,0q-0.890625,0-0.890625-0.46875q0-0.5625,0.984375-1.078125q0.28125-0.28125,0.28125-0.375q0-0.046875-0.28125-0.46875q-1.265625-2.0625-1.453125-2.859375q-1.125,0.5625-1.640625,0.5625q-0.46875,0-0.46875-0.5625l0-0.234375q-0.421875,0-1.171875-0.046875t-1.125-0.046875q-0.140625,0-0.421875-0.09375t-0.421875-0.09375t-0.5625,0.046875t-0.609375,0.046875q-0.375,0-0.46875-0.09375q-0.984375,0.28125-1.921875,0.28125l-0.375,0l-0.421875,0l-0.84375,0l-0.46875,0q-0.1875,0-0.65625,0.1171875t-0.703125,0.1171875q-0.046875,0-0.1875-0.0703125t-0.1875-0.0703125q-0.1875-0.09375-0.46875-0.09375t-0.890625,0.2109375t-0.9375,0.2109375t-0.515625-0.09375q-0.140625-0.09375-0.2578125-0.234375t-0.140625-0.234375t-0.0703125-0.1640625t-0.09375-0.0703125q-0.1875,0-0.46875,0.28125q-0.9375,0.703125-1.546875,0.703125l-0.28125,0q-0.328125-0.09375-0.984375-0.1171875t-0.84375-0.0703125l-0.1875,0q-0.140625,0-0.3515625,0.09375t-0.3046875,0.09375q-0.328125,0-0.609375-0.28125q-0.328125,0.09375-0.3984375,0.1171875l-0.140625,0.046875t-0.140625,0.1875t-0.1640625,0.3046875q-0.28125,0.46875-1.265625,1.265625l0,0.1875q0,0.5625-0.46875,1.03125q-0.1875,0.1875-0.1875,0.46875l0,0.421875l0,0.28125q0,0.421875-0.5625,2.109375q-0.1875,1.21875-0.890625,2.109375q0.140625,0.234375,0.234375,0.3046875t0.140625,0.09375t0.234375,0.0234375t0.375,0.046875q0.28125,0,0.46875,0.375q0.09375-0.09375,0.375-0.09375q0.1875,0,0.28125,0.09375q0.46875,0.09375,1.265625,0.09375l0.375,0q1.265625,0,2.109375,0.28125q0.5625-0.1875,0.796875-0.1875q0.9375,0,1.3828125,0.9375t0.4453125,2.15625q0,0.515625-0.140625,0.9375q0.75-0.375,0.984375-0.375q0.375,0,0.375,0.375q0.09375,0.09375,0.09375,0.328125q0,0.1875-0.1640625,0.328125t-0.4921875,0.3046875t-0.375,0.2109375q-0.421875,0.421875-0.421875,0.9375q0,0.234375,0.0703125,0.7734375t0.0703125,0.7734375l0,0.375q0.1875,0.5625,0.1875,0.890625q0,0.75-0.3984375,1.265625t-1.0546875,0.46875q-0.984375-0.140625-1.828125-0.28125l-0.28125,0q-0.375,0-1.078125-0.234375q-0.140625,0.046875-0.515625,0.1875t-0.515625,0.140625q-0.09375,0-0.2109375-0.046875t-0.1640625-0.046875t-0.2109375,0.046875t-0.2109375,0.046875q-0.1875,0-0.515625-0.140625t-0.515625-0.1875q-1.171875,0.328125-1.921875,0.328125q-0.5625,0.1875-1.359375,0.1875q-1.5,0-1.921875-0.28125q-0.5625,0.1875-1.03125,0.1875q-0.84375,0-1.171875-0.609375q-0.28125,0.421875-1.2421875,0.5625t-1.2421875,0.328125q-0.046875,0-0.09375,0.046875t-0.09375,0.046875q-0.09375,0-0.234375-0.09375t-0.234375-0.09375q-0.328125,0-1.265625,0.1875q-0.28125,0.09375-0.84375,0.09375q-0.703125,0-1.453125-0.1875l-0.375,0.046875q-0.375,0.046875-0.609375,0.046875q-0.28125,0-0.6328125-0.046875t-0.3984375-0.046875q-0.375-0.046875-1.078125-0.046875t-1.1953125-0.046875t-0.9140625-0.1875t-1.78125-0.1875t-1.875-0.421875q-0.046875,0-0.2109375,0.09375t-0.2578125,0.09375q-0.1875,0-0.28125-0.1875q-0.09375-0.09375-0.09375-0.28125q0-0.140625,0.1640625-0.4453125t0.2109375-0.3984375q0-0.140625-0.046875-0.5625t-0.046875-0.609375q0-0.28125,0.046875-0.65625t0.046875-0.46875q0-0.46875-0.140625-1.5t-0.140625-1.5q0-0.5625,0.09375-0.84375q0-3,2.203125-3q0.375,0.046875,1.546875-0.2109375t1.734375-0.2578125q0.609375,0,1.03125,0.28125q0.421875-1.3125,0.984375-1.734375q0.1875-0.140625,0.3984375-0.1875t0.328125-0.0703125t0.234375-0.140625t0.1640625-0.3515625q0.09375-0.140625,0.65625-1.0078125t0.609375-1.2890625q0.09375-0.515625,0.3984375-1.0546875t0.7734375-1.1484375t0.65625-0.890625q0-0.046875,0.046875-0.140625t0.046875-0.140625q0-0.09375-0.046875-0.328125t-0.046875-0.328125q0-0.421875,0.28125-0.703125q0.140625-0.09375,0.5625-0.6328125t0.796875-0.6796875q-0.375,0-0.375-0.375q0-0.46875,0.28125-0.609375q0.515625-0.421875,0.65625-1.3125q0.09375-0.328125,0.5390625-0.9609375t0.5390625-0.8671875t0.3046875-0.6328125t0.2578125-0.7265625q0-0.1875,0.0703125-0.5390625t0.1640625-0.75t0.140625-0.5390625l0-0.1875q0-0.328125,0.234375-1.078125t0.234375-0.84375q0.09375-0.609375,0.8203125-1.6875t0.9140625-1.59375q0.1875-0.5625,0.796875-1.3125q0-0.703125,0.46875-1.171875l0-0.1875q0-0.375,0.1875-0.84375t0.5390625-1.0546875t0.3984375-0.6796875q0.140625-0.375,0.4453125-1.1015625t0.4453125-1.1015625q0,0.140625-0.328125-0.28125l-0.140625-0.328125q0-0.46875,0.65625-1.125q0.46875-0.703125,0.65625-0.890625l0-0.28125q0-0.28125,0.1875-0.65625q0.5625-1.6875,0.890625-2.109375q0.140625-0.234375,0.1640625-0.6796875t0.2109375-0.6796875l0.46875-0.46875q0.28125-1.125,0.796875-1.453125q0.796875-2.4375,1.125-2.859375q0.1875-1.453125,0.75-2.53125q0.09375-0.234375,0.2578125-0.703125t0.2578125-0.703125q0.328125-1.3125,0.46875-1.453125q0.28125-0.328125,0.46875-0.984375t0.28125-0.84375q-0.375,0-0.375-0.375q0-0.46875,1.171875-1.640625q0.09375-0.375,0.421875-1.0546875t0.609375-0.9609375q0.046875-0.046875,0.234375-0.28125t0.28125-0.328125t0.28125-0.3046875t0.3515625-0.328125t0.3515625-0.234375t0.3984375-0.1640625t0.3984375,0q0.1875-0.09375,0.515625-0.09375l0.46875,0l0.375-0.09375q0.09375,0-0.1875,0.140625l-0.28125,0.140625q0.1875-0.09375,0.84375-0.375q0.09375-0.09375,0.375-0.09375q0.140625,0,0.421875,0.09375t0.46875,0.09375q0.046875,0,0.1875-0.046875t0.1875-0.046875l0.1875,0q0.1875,0,0.5390625,0.09375t0.5390625,0.09375q0.28125-0.1875,1.03125-0.1875l0.796875,0l0.28125,0q0.28125,0,0.84375-0.09375t0.796875-0.09375l0.28125,0l0.46875,0q0.328125,0,1.265625-0.1875l0.375,0q0.421875,0,1.3359375,0.1875t1.3359375,0.1875q0.328125,0,0.65625,0.2109375t0.609375,0.5859375t0.515625,0.7734375t0.46875,0.9609375t0.375,0.9375t0.328125,0.890625t0.234375,0.65625q0.046875-0.046875,0.3515625-0.3046875t0.5390625-0.3984375t0.421875-0.09375q0.421875,0,0.421875,0.375q0,0.234375-0.09375,0.328125q-0.140625,0.234375-0.703125,0.5859375t-0.5625,0.6328125l0,0.09375q0.140625,0.46875,0.75,1.453125q0.1875,0.328125,0.65625,1.078125t0.75,1.3125t0.421875,1.171875q0.421875,0.75,0.9140625,2.3671875t0.9140625,2.3203125q0.140625,0.28125,0.5390625,0.9140625t0.65625,1.171875t0.3515625,1.0078125q1.078125-0.703125,1.265625-0.703125q0.328125,0,0.46875,0.515625l0,0.1875q0,0.703125-0.703125,1.40625q-0.28125,0.421875-0.28125,0.609375l0.1875,0.375q0.28125,0.375,0.703125,1.21875q1.078125,1.828125,1.21875,3.28125q0.234375,0.65625,0.421875,1.640625q0.28125,0.28125,0.28125,0.5625q0.09375,0.09375,0.28125,0.09375t0.28125,0.1875q0.09375,0.09375,0.09375,0.328125l0,0.5625l0,0.375q0.234375,0.234375,0.375,0.65625q0.5625,0.703125,0.796875,1.359375q0.65625,0.890625,1.171875,2.859375t0.84375,2.625q0.5625,0.46875,1.21875,2.765625q1.453125,2.765625,1.640625,3.65625q0.09375,0.1875,0.28125,0.1875q0.09375,0,0.328125-0.09375t0.375-0.09375l0.1875,0q0.46875,0.140625,0.46875,0.375q0,0.28125-0.328125,0.703125t-0.328125,0.46875q0.375,0.609375,0.75,0.75q0.1875,0,0.65625,1.921875q0.5625,1.359375,0.703125,2.203125q0.515625,0.75,1.59375,2.71875q0.515625,0.984375,1.4765625,1.875t1.8046875,0.890625q0.28125,0.046875,0.84375,0.3046875t0.796875,0.2578125q0.5625,0,0.9375,0.1875q0.28125-0.09375,0.984375-0.09375q1.96875,0,2.578125,0.890625q0.28125,0.5625,0.28125,1.734375q0,0.9375-0.09375,1.21875q0.28125,1.40625,0.28125,2.296875q0,0.703125-0.1875,1.265625z M274.13109375,151.609375l0,0.09375l0-0.09375l0-0.28125q0-0.234375,0.046875-0.9375t0.046875-0.984375q0-0.890625-0.1875-0.890625q-0.328125,0.84375-1.1015625,2.4140625t-1.1015625,2.4140625q0.84375-0.5625,1.265625-0.5625q0.5625,0,1.125,1.3125q-0.09375-0.375-0.09375-1.828125l0-0.65625z M266.95921875,146.03125l0,0.09375l0-0.09375q-0.1875-0.09375-0.3515625-0.2578125t-0.2578125-0.234375t-0.1875-0.0703125q-0.1875,0-0.65625,0.46875q-0.703125,0.609375-3,2.90625q-2.71875,2.625-5.34375,5.34375q8.25-4.734375,9.375-5.34375q0.515625-0.375,1.359375-0.890625q0.09375-0.09375,0.28125-0.09375q0.375,0,0.375,0.46875q0,0.328125-0.09375,0.421875q-0.140625,0.28125-0.421875,0.5625t-0.4921875,0.46875t-0.5859375,0.46875t-0.515625,0.421875q-0.703125,0.65625-2.2265625,1.828125t-2.2734375,1.78125q1.6875-0.984375,5.0390625-2.953125t5.0390625-2.90625l-0.1875,0q-0.796875,0-1.359375-0.375q-0.234375-0.09375-1.640625-0.5625q-0.46875-0.046875-1.03125-0.4921875t-0.84375-0.9609375z M260.02171875,154.609375q0.28125-0.140625,0.5859375-0.375t0.703125-0.5859375t0.5390625-0.4921875q0.46875-0.375,1.3828125-1.1015625t1.3828125-1.1015625q-0.9375,0.609375-2.90625,1.6640625t-2.953125,1.6640625q0.140625,0.046875,1.265625,0.328125z M263.86546875,142.28125q-0.375-0.46875-0.75-1.59375t-0.515625-1.453125q-0.046875,0.140625-0.9375,0.75q-0.421875,0.28125-1.2421875,0.8671875t-1.2421875,0.8671875q-5.296875,3.65625-7.125,5.015625q-6.1875,4.453125-9.09375,7.359375q0.703125,0.140625,1.59375-0.1875t1.453125-0.703125t1.6171875-1.1953125t1.2890625-0.9609375q6-4.125,7.359375-5.015625q0.421875-0.234375,1.4296875-0.9609375t1.640625-1.125t1.5703125-0.8203125t1.6875-0.515625q0.046875,0,0.1640625-0.0703125t0.1640625-0.0703125q0.234375,0,0.5625,0.328125q0.28125,0.140625,0.28125,0.375q0,0.46875-0.84375,0.75q-5.71875,3.609375-6.84375,4.40625q-3.328125,2.34375-5.578125,4.359375q-1.078125,1.078125-1.21875,1.5q0.5625-0.1875,1.125-0.515625t1.2890625-0.9140625t1.0078125-0.7734375q0.84375-0.5625,2.4375-1.734375t2.390625-1.734375q0.328125-0.234375,1.3125-0.984375t1.5234375-1.1484375t1.40625-0.984375t1.6640625-0.9609375t1.59375-0.609375q-0.796875-0.609375-1.171875-1.546875z M249.09984375,142.609375l0.09375,0l-0.09375,0q0.09375,0.09375,0.09375,0.28125q0.375-0.28125,1.1484375-0.8671875t1.1484375-0.8671875q-2.15625,1.359375-2.390625,1.453125z M259.27171875,132.484375q-0.046875-0.046875-0.609375,0.3515625t-0.65625,0.5390625q0.046875-0.046875,0.2109375-0.1640625t0.3515625-0.2109375t0.3515625-0.2109375t0.28125-0.1875t0.0703125-0.1171875z M258.09984375,130q-1.5,1.265625-4.453125,3.75t-4.453125,3.75q0.9375-0.421875,2.0390625-1.1015625t1.7109375-1.1484375t1.96875-1.5234375t1.734375-1.3359375q0.046875-0.046875,0.3046875-0.1875t0.515625-0.3046875t0.515625-0.3515625t0.3984375-0.375t0.09375-0.28125q-0.234375-0.46875-0.375-0.890625z M262.13109375,137.78125l-0.09375,0l0.09375,0q-0.09375,0.046875-0.28125,0.1875t-0.28125,0.1875q0.5625,0.1875,0.84375,0.375q-0.1875-0.5625-0.28125-0.75z M261.09984375,136.046875q-0.09375-0.09375-1.0546875,0.46875t-2.3671875,1.5t-2.71875,1.828125t-2.4609375,1.7109375t-1.2890625,0.9140625q0.796875-0.421875,3.65625-1.921875t4.40625-2.390625q0.234375-0.140625,1.2890625-0.6796875t1.1015625-0.5390625q-0.515625-0.796875-0.5625-0.890625z M255.14671875,137.6875l0.75-0.46875l-1.078125,0.5625q0.140625,0,0.328125-0.09375q3.328125-2.015625,4.78125-2.765625q0.1875-0.09375,0.1875-0.421875q0-0.234375-0.1875-0.65625l-0.1875-0.375q-0.5625,0.421875-1.59375,1.40625t-1.5,1.359375q-3.5625,2.53125-4.78125,3.46875q0.1875-0.140625,1.3828125-0.890625t1.8984375-1.125z M256.45921875,126.34375q-0.09375-0.1875-0.375-1.21875q-7.3125,5.390625-10.828125,8.8125q0.328125,0.1875,0.65625,0.796875q1.3125-0.796875,4.0546875-2.4375t4.1015625-2.484375q2.0625-1.3125,2.203125-1.359375q0.140625-0.09375,0.375-0.1875t0.328125-0.1640625t0.09375-0.2109375q0-0.046875-0.046875-0.1640625t-0.046875-0.2109375q-0.09375-0.140625-0.2578125-0.5859375t-0.2578125-0.5859375z M255.70921875,123.296875q-0.46875-0.703125-0.65625-1.078125q-9.375,6.5625-15.375,11.34375q1.453125-0.84375,4.3359375-2.5078125t4.2890625-2.4609375q0.28125-0.140625,5.578125-3.28125q0.375-0.1875,1.546875-0.890625q0.375-0.234375,0.375-0.375q0-0.046875-0.046875-0.28125t-0.046875-0.46875z M253.97484375,120.296875q0.046875,0.09375-2.34375,1.6171875t-5.1328125,3.140625t-3.4453125,1.8984375q-0.140625,0.046875-1.078125,0.28125q-0.1875,0-0.5859375,0.515625t-0.8671875,0.421875q-0.75,1.453125-3.609375,3.5625q1.03125-0.65625,5.5078125-3.4921875t6.8671875-4.2890625q0.234375-0.140625,1.171875-0.7265625t1.40625-0.8671875t1.2421875-0.609375t1.4296875-0.375q-0.09375-0.1875-0.28125-0.5390625t-0.28125-0.5390625z M232.45921875,133.84375l0.28125-0.1875l-0.28125,0.1875q4.21875-2.953125,6.234375-4.875q-1.40625,0.84375-4.2890625,2.5078125t-4.3359375,2.4609375q0.1875,0.09375,0.5625,0.09375q0.28125,0,0.9140625-0.09375t0.9140625-0.09375z M198.19359375,151.234375l0.375-0.375l-0.375,0.375q1.21875-1.125,3.9375-2.8125q-0.1875-0.09375-0.703125,0.1875t-1.0546875,0.65625t-0.6328125,0.421875t-0.375,0.1640625t-0.375,0.1875t-0.28125,0.1875t-0.28125,0.234375t-0.1640625,0.3046875t-0.0703125,0.375l0,0.09375z M209.81859375,138.765625l0,0.28125q2.578125-1.828125,9.140625-5.296875q1.5-0.75,4.453125-2.625t4.640625-2.671875q-0.09375,0-0.3046875-0.09375t-0.3515625-0.09375q-0.703125,0-1.265625,0.09375q-0.46875,0.234375-1.125,0.234375q-1.78125,0-2.34375-1.171875q-8.4375,5.0625-9.65625,5.765625q-0.5625,0.328125-0.84375,0.8203125t-0.328125,0.796875t-0.09375,1.1484375q-0.046875,0.328125-0.4453125,0.8203125t-0.4453125,0.8203125q-0.046875,0.375-0.5390625,0.5859375t-0.4921875,0.5859375z M226.13109375,98.40625l0,0.09375q0.09375,0,0.421875-0.3046875t0.375-0.3515625q1.171875-1.40625,1.5-1.734375q0.421875-0.46875,1.265625-1.3828125t1.265625-1.3828125q-1.265625,0.84375-2.53125,1.546875q-0.984375,0.328125-1.125,0.5625q-0.140625,1.3125-1.171875,2.953125z M242.34984375,93.0625l-2.484375,1.921875q2.484375-1.828125,2.484375-1.921875q-8.90625,6.65625-16.96875,13.03125q8.203125-5.671875,12.84375-8.25q3.65625-2.015625,5.109375-2.296875q-0.1875-0.421875-0.4921875-1.265625t-0.4921875-1.21875z M235.08421875,108.484375l-0.234375-0.1875q0.140625,0.1875,0.234375,0.1875q-0.09375-0.09375-0.09375-0.28125q0-0.515625,1.3125-1.828125q0.984375-1.03125,3.0234375-3t3.0234375-2.953125q-0.703125,0.375-4.59375,2.71875q-0.1875,0.09375-1.265625,0.84375t-2.0390625,1.2890625t-1.2890625,0.3515625q0.328125,0.65625,0.9375,2.296875t1.078125,2.484375q1.453125-1.265625,4.8984375-3.4453125t4.9921875-3.6328125q-0.28125,0.140625-2.859375,1.7109375t-4.7578125,2.6953125t-2.3671875,0.75z M247.64671875,105.53125q0.046875,0.09375-0.65625,0.7265625t-1.5234375,1.3359375t-0.9140625,0.796875q-0.796875,0.703125-2.34375,2.109375t-2.34375,2.15625q2.859375-1.921875,6.140625-3.75q2.203125-1.21875,2.671875-1.359375q-0.9375-1.453125-1.03125-2.015625z M238.50609375,116.96875q-0.09375-0.09375-0.09375-0.28125q0-0.609375,0.9609375-1.6640625t1.9921875-1.8515625t2.34375-1.734375t1.359375-0.9375q-1.78125,1.03125-6.65625,4.03125q-0.09375,0.09375-0.375,0.2578125t-0.421875,0.28125t-0.140625,0.2578125l0,0.09375l0.1875,0.65625q0.46875,0.703125,0.46875,1.265625q0.234375,0.421875,0.6796875,1.2890625t0.6796875,1.2890625q2.578125-1.734375,7.359375-5.390625q0.1875-0.140625,0.75-0.515625t1.0078125-0.7265625t0.890625-0.75t0.65625-0.8203125t0.0703125-0.796875q-6.796875,4.453125-9.28125,5.671875q-0.046875,0-0.421875,0.1875t-0.75,0.328125t-0.65625,0.140625q-0.46875,0-0.609375-0.28125z M236.11546875,125.59375l0.09375,0l-0.1875,0l0.09375,0q0.375,0,1.21875,0.1875t1.171875,0.1875l0.28125,0q0.609375-0.140625,0.609375-0.28125l0-0.65625q-0.09375-0.140625-0.140625-0.4921875t-0.140625-0.4921875q-0.140625-0.234375-0.3515625-0.7734375t-0.3515625-0.7734375q-0.234375-0.515625-0.375-0.5625q-0.375,0-0.375-0.28125l0-0.46875l0-0.1875q-1.546875-3-2.109375-4.640625q-0.328125,0.234375-0.703125,0.234375q-0.28125,0-0.28125-0.328125q0-0.375,0.609375-0.84375q-0.046875-0.09375-0.234375-0.515625t-0.28125-0.5625q-0.140625-0.28125-0.375-0.796875t-0.375-0.796875q-0.1875-0.375-0.609375-1.1484375t-0.7265625-1.4296875t-0.4921875-1.265625q-0.75,1.5-0.84375,1.59375l0,0.234375q0,0.796875-0.609375,1.40625q0.046875,0.28125-0.234375,1.03125t-0.515625,1.078125q0,0.1875-0.09375,0.328125t-0.2578125,0.328125t-0.2109375,0.328125q-0.046875,0.09375-0.0703125,0.3984375t-0.1171875,0.4453125q-0.1875,1.96875-0.703125,3.09375q-0.140625,0.328125-0.4921875,1.546875t-0.7265625,1.6875q-0.046875,0.46875-0.65625,1.03125t-0.703125,0.890625q-0.046875,0.1875-0.2578125,0.65625t-0.2109375,0.796875q0.9375,0.1875,1.734375,0.1875q0.375,0,1.125-0.1875l0.375,0q0.28125,0,0.9609375,0.140625t0.9609375,0.140625q0.1875,0,0.75-0.140625t0.796875-0.140625q0.046875,0,0.140625,0.046875t0.140625,0.046875q0.1875-0.09375,1.359375-0.09375l0.46875,0q0.1875-0.09375,0.375-0.09375q0.140625,0,0.328125,0.140625t0.375,0.140625q0.28125-0.1875,0.84375-0.375z M222.47484375,126.4375l-0.65625,0.421875l0,0q0.09375-0.140625,0.65625-0.421875q0.140625-0.09375,0.4921875-0.796875t0.3046875-0.984375q-1.265625,1.125-7.96875,6.140625z M224.49046875,121.84375l-0.09375,0l0.09375,0q0,0.046875-2.109375,1.453125q0.234375-0.140625,2.109375-1.453125z M214.31859375,127.609375q0-0.1875,2.90625-1.921875q0.5625-0.328125,1.640625-1.0546875t1.59375-1.0546875q0.140625-0.09375,1.359375-0.984375t1.921875-1.3125q0.046875-0.046875,1.03125-0.75t1.078125-1.078125q-4.921875,3.46875-7.96875,5.296875q-1.171875,0.703125-2.484375,1.3125q-0.46875,0.234375-0.6796875,0.7734375t-0.3984375,0.7734375z M215.49046875,124.75l0,0.28125q3.234375-1.6875,10.359375-6.75q0.515625-0.375,0.75-1.359375t0.421875-1.3125l0-0.28125q0-0.421875,0.3046875-1.125t0.3515625-0.984375q-6.234375,4.640625-8.71875,6.796875q-0.515625,0.328125-1.734375,1.359375q-0.328125,0.796875-0.890625,1.03125q0,1.21875-0.84375,2.34375z M229.69359375,108.203125q0-0.1875,0.09375-0.28125q-5.53125,3.984375-9.140625,7.59375q4.125-3.046875,6.75-4.3125q0.046875-0.046875,0.7734375-0.3515625t0.7734375-0.4453125q0.09375-0.234375,0.3046875-1.0078125t0.4453125-1.1953125z M250.78734375,112.328125l-0.375,0.421875l0.375-0.421875q-1.3125,1.3125-3.421875,3q2.859375-1.828125,3.9375-2.109375q-0.09375-0.140625-0.2578125-0.4453125t-0.2578125-0.4453125z M251.11546875,114.25l-0.703125,0.28125q0.609375-0.1875,0.703125-0.28125q-1.359375,0.609375-7.78125,4.734375q-0.046875,0.046875-0.4453125,0.28125t-0.8671875,0.515625l-0.9375,0.5625t-0.7734375,0.515625t-0.2578125,0.328125q0.234375,0.375,0.65625,1.453125q0.140625-0.515625,0.4921875-0.984375t0.9609375-0.9375t1.0078125-0.7265625t1.1953125-0.75t0.890625-0.5390625q0.46875-0.328125,1.8984375-1.2421875t2.3671875-1.640625t1.59375-1.5703125z M241.31859375,124.140625l0.28125-0.28125q-0.28125,0.1875-0.28125,0.28125q0.9375-0.84375,2.578125-2.109375q-0.1875,0.09375-0.796875,0.5625t-1.125,0.75t-0.84375,0.234375q0.046875,0.046875,0.09375,0.2578125t0.09375,0.3046875z M242.53734375,121.75q0.984375-0.609375,3-1.7578125t3.046875-1.7109375q0.5625-0.28125,1.6171875-0.9140625t1.5703125-0.9140625q0.5625-0.28125,0.65625-0.28125q-0.140625-0.328125-0.375-1.640625q-0.234375,0.375-0.5625,0.75t-0.8203125,0.75t-0.7734375,0.5625t-0.9375,0.609375t-0.75,0.515625q-0.609375,0.46875-1.828125,1.2421875t-2.15625,1.4296875t-1.6875,1.359375z M247.27171875,104.359375l-0.421875,0.09375l0.421875-0.09375q-0.984375,0.328125-1.9921875,0.8203125t-2.109375,1.171875t-1.78125,1.1484375t-1.9453125,1.3828125t-1.6875,1.2421875q-2.109375,1.40625-2.015625,1.640625q0.234375,0.234375,0.375,0.65625q0.140625,0.234375,0.328125,0.7734375t0.328125,0.7734375q3.9375-3.28125,6.84375-5.953125q0.09375-0.09375,0.609375-0.4921875t0.984375-0.796875t0.984375-0.8671875t0.8203125-0.8671875t0.2578125-0.6328125z M230.53734375,106.28125q0-0.09375-0.09375-0.09375q-0.140625,0-0.65625,0.515625q0.1875-0.09375,0.375-0.09375l0.1875,0.09375q0-0.140625,0.1875-0.421875z M229.41234375,104.453125l2.390625-1.3125q0-0.046875-0.4921875,0.2109375t-1.078125,0.5859375t-0.8203125,0.515625q8.625-4.96875,12.9375-7.546875q-1.3125,0.515625-2.6015625,1.125t-2.8828125,1.5703125t-2.3671875,1.453125t-2.7421875,1.8046875t-2.34375,1.59375z M224.67796875,102.4375l0.234375-0.1875q-0.046875,0.09375-0.234375,0.1875q0-0.09375,1.078125-0.65625t2.296875-1.171875t1.453125-0.75q3.28125-1.96875,8.25-5.0625q-0.890625,0.515625-5.765625,3.2109375t-7.3125,4.4296875z M223.08421875,106.609375l0.09375-0.140625q0,0.046875-0.09375,0.140625q0-0.140625,1.8984375-1.5234375t2.6015625-1.8515625q4.40625-3.46875,6.609375-5.109375q-4.640625,2.90625-8.53125,5.015625q-1.265625,0.328125-1.359375,0.75q-0.890625,2.390625-1.21875,2.71875z M222.75609375,110.21875l-0.1875,0.1875q0.28125-0.1875,0.28125-0.28125l-0.09375,0.09375q-0.09375,0.09375-0.46875,0.3046875t-0.609375,0.375t-0.4921875,0.3984375t-0.3515625,0.46875q2.578125-1.6875,3.5625-2.203125z M225.84984375,109.75l-1.078125,0.65625q0.703125-0.28125,1.078125-0.65625q-2.0625,1.3125-3.46875,2.109375l-0.65625,0.328125t-0.9609375,0.5625t-0.4921875,0.46875q-0.375,1.125-0.375,1.828125q1.734375-1.828125,5.953125-5.296875z M218.16234375,119.265625l0,0.09375l0,0.09375q0.140625,0,0.796875-0.65625q0.5625-0.421875,1.21875-1.078125q1.96875-1.59375,3-2.203125q3.046875-2.34375,4.875-3.65625q-2.015625,1.03125-6.515625,4.125q-0.421875,0.328125-1.2421875,0.9609375t-1.2421875,0.9609375q-0.234375,0.1875-0.4453125,0.6796875t-0.4453125,0.6796875z M213.66234375,130.890625q0-0.09375,0.2109375-0.3046875t0.5390625-0.421875t0.609375-0.421875t0.5859375-0.375t0.3515625-0.2109375q1.546875-1.171875,2.109375-1.640625q2.25-1.59375,3.5625-2.671875q-0.796875,0.46875-2.5078125,1.4296875t-2.5078125,1.4296875q-0.375,0.234375-1.1953125,0.7265625t-1.1953125,0.7265625q-0.28125,0.140625-0.375,0.3984375t-0.1171875,0.6796875t-0.0703125,0.65625z M214.69359375,137.125q-4.5,2.71875-6.046875,4.03125q0.703125-0.375,6.046875-4.03125z M208.08421875,142.46875l0,0.140625l0.65625-0.328125q1.171875-0.703125,1.359375-0.84375q0.984375-0.515625,3.46875-2.296875q0.609375-0.421875,1.921875-1.3125t1.921875-1.3125q0.1875-0.140625,0.8203125-0.5390625t1.078125-0.75t0.6796875-0.7265625q-0.328125,0.234375-3.6328125,2.6015625t-4.9921875,3.4921875q-1.6875,1.078125-2.203125,1.3125q-0.09375,0.046875-0.375,0.140625t-0.46875,0.1875t-0.234375,0.234375z M220.74046875,134.125l0.234375-0.09375l-0.234375,0.09375q0.234375-0.140625,0.6796875-0.46875t0.6796875-0.46875z M199.08421875,148.65625l-0.234375,0.46875q0.234375,0,0.515625-0.28125q0-0.1875-0.28125-0.1875z M205.31859375,146.5q0.046875-0.140625,0.5859375-0.421875t1.359375-0.65625t0.9140625-0.421875q2.25-1.3125,3.75-2.109375q0.140625-0.09375,0.84375-0.4453125t1.4765625-0.75t1.5703125-0.8671875t1.3125-0.84375t0.46875-0.5625q-2.390625,1.3125-6.234375,3.5625q-0.75,0.421875-2.15625,1.2421875t-2.15625,1.2421875l-0.515625,0.2578125t-0.7734375,0.3984375t-0.4453125,0.375z M227.86546875,130.375l-0.46875,0.328125l0.5625-0.328125l-0.09375,0q-0.984375,0.609375-3.5625,2.4375q0.609375-0.375,2.2265625-1.4296875t2.5078125-1.5703125q-0.1875,0.09375-0.5859375,0.28125t-0.5859375,0.28125z M234.66234375,128.359375l-1.40625,1.078125q0.046875-0.046875,0.1171875-0.09375t0.2578125-0.1875t0.3515625-0.2578125t0.3515625-0.2578125t0.234375-0.234375l0.09375-0.046875q-4.78125,3.65625-6.984375,5.765625q0.515625,0,2.484375-1.3125q1.546875-0.84375,2.578125-1.546875l4.921875-2.8125q-0.28125,0-0.9609375-0.09375t-0.9609375-0.09375l-0.09375,0q-0.09375,0-0.3046875,0.09375t-0.3515625,0.09375q-0.046875,0-0.1640625-0.046875t-0.1640625-0.046875z M245.34984375,124.75q3-1.734375,6.328125-4.125q-1.078125,0.703125-3.1875,2.0625t-3.140625,2.0625z M253.03734375,118.09375q-0.421875-0.609375-0.421875-1.03125q-4.734375,3.140625-7.265625,5.0625q-3.84375,2.53125-3.75,3.1875q4.3125-2.4375,8.4375-4.921875q1.6875-0.9375,2.671875-1.59375q0.421875-0.28125,0.421875-0.328125t-0.046875-0.1640625t-0.046875-0.2109375z M249.66234375,109.375q-0.09375-0.09375-0.375-0.890625q-0.234375,0.1875-1.3828125,0.9609375t-1.5234375,1.0546875t-1.3359375,0.984375t-1.4765625,1.125l-1.2890625,1.0546875t-1.359375,1.21875t-1.1484375,1.1953125q2.390625-1.03125,5.484375-3.140625q0.28125-0.140625,4.125-2.53125q0.46875-0.234375,0.46875-0.46875q0-0.28125-0.1875-0.5625z M246.75609375,103.140625q0-0.28125-0.09375-0.375q-0.421875,0.703125-1.03125,1.3125q0.140625-0.09375,0.515625-0.2109375t0.5390625-0.28125t0.0703125-0.4453125z M245.72484375,100.234375q-0.1875-0.28125-0.609375-0.8671875t-0.7265625-1.125t-0.4921875-1.0546875q-2.109375,1.21875-5.8828125,3.9140625t-5.4609375,3.7734375l0.28125,0.28125q0.046875-0.28125,0.5859375-0.65625t1.3125-0.7734375t0.8203125-0.3984375l1.5234375-0.9140625t1.78125-1.078125t1.4765625-0.9140625q0.28125-0.140625,0.9609375-0.5625t1.265625-0.703125t1.0546875-0.328125q0.5625,0,0.5625,0.375q0,0.1875-0.140625,0.4453125t-0.328125,0.5390625t-0.1875,0.328125q-1.125,1.3125-3.5625,3.6328125t-2.671875,2.5546875q0.796875-0.421875,2.2734375-1.3125t2.2265625-1.3125q0.46875-0.28125,1.4765625-0.8671875t1.4765625-0.8671875q0.140625-0.046875,0.421875-0.2578125t0.5625-0.3515625t0.46875-0.140625q-0.09375-0.1875-0.234375-0.6796875t-0.234375-0.6796875z M234.66234375,92.453125l-0.09375,0l0.09375,0q-0.46875,0.234375-0.5625,0.234375q-0.140625,0-0.4453125-0.046875t-0.3984375-0.046875q-0.515625,0-0.703125,0.28125q-0.46875,0.5625-1.3828125,1.5703125t-1.0078125,1.1015625q-1.171875,1.265625-4.21875,4.6875q3.46875-1.734375,13.640625-8.15625q-1.5,0.375-1.828125,0.375q-0.28125,0-0.65625-0.1875q-0.140625,0.046875-0.5390625,0.234375t-0.6328125,0.1875l-0.46875-0.234375l-0.46875,0l-0.328125,0z M200.49046875,154.375q0.703125,0,1.078125,0.234375q0.46875-0.28125,1.359375-1.171875q1.828125-1.640625,3.140625-2.484375q-0.75,0.46875-2.765625,1.5703125t-3.09375,1.7578125l-0.09375-0.09375q0.09375,0,0.375,0.1875z M208.55296875,154.609375l0.09375,0l-0.09375,0q0.609375-0.421875,1.828125-0.421875l0.1875,0q0.1875,0.09375,0.515625,0.09375q0.46875,0,0.9140625-0.3046875t1.0078125-0.9140625t0.75-0.796875q0.09375-0.09375,0.6328125-0.5859375t1.1015625-1.0078125t1.125-1.078125t0.8671875-1.0546875t0.2109375-0.6796875q-0.09375-0.09375-0.28125-0.09375q-0.234375,0-0.6328125,0.1875t-0.796875,0.46875t-0.4921875,0.328125q-1.453125,0.75-3,1.6875l-7.171875,4.359375l0.28125,0q0.1875,0,0.65625-0.2109375t0.703125-0.2109375q0.328125,0,1.03125,0.234375q0.140625-0.140625,0.28125-0.140625t0.28125,0.140625z M218.72484375,154.1875q0.375,0.046875,0.703125-0.28125t0.65625-0.9140625t0.46875-0.7265625q0.84375-1.171875,2.71875-3.328125q-0.9375,0.328125-1.875,0.75t-2.0625,1.1015625t-1.7109375,1.03125t-1.9453125,1.265625t-1.640625,1.1015625q1.078125,0,2.203125,0.1875l0.1875,0q0.234375,0,0.6796875-0.1875t0.6796875-0.1875q0.1875,0,0.4921875,0.09375t0.4453125,0.09375z M224.67796875,153.4375q0-0.1875-0.09375-0.1875q-0.140625,0-0.375,0.375q0,0.1875,0.28125,0.46875q0.1875-0.1875,0.1875-0.28125l0-0.1875l0-0.1875z M223.92796875,151.890625l-0.75,0.5625q0.1875-0.1875,0.75-0.5625q0.75-0.421875,0.75-1.359375q0-0.234375-0.046875-0.7734375t-0.046875-0.8203125q-0.28125-0.1875-1.9453125,2.0390625t-2.1796875,3.1171875q0.46875-0.09375,1.1015625-0.4921875t1.3359375-0.9609375t1.03125-0.75z M220.36546875,148.75l0.09375,0l-0.09375,0l-0.28125,0l-0.375,0q-0.1875,0-0.46875,0.09375q-0.140625,0.046875-0.3515625-0.0234375t-0.2578125-0.0703125q-0.1875,0-0.28125,0.1875q-0.09375,0.09375-0.234375,0.28125t-0.234375,0.28125q-1.078125,1.125-3.375,3.28125q2.390625-1.546875,6.5625-3.9375l-0.328125,0q-0.1875,0-0.375-0.09375z M209.81859375,150.953125l1.171875-0.703125q0.09375,0-1.640625,1.078125q0.09375-0.09375,0.46875-0.375q0.515625-0.28125,3.140625-1.8046875t4.078125-2.3203125q-0.515625-0.515625-0.890625-1.640625q-0.328125,0.234375-2.203125,1.40625t-2.4609375,1.546875t-2.15625,1.4296875t-2.4140625,1.7109375t-2.015625,1.6171875t-2.109375,1.8984375q0.890625-0.234375,1.8984375-0.7265625t1.6875-0.9140625t1.8046875-1.1484375t1.640625-1.0546875z M216.52171875,143.734375q0-0.046875-0.5390625,0.28125t-0.9609375,0.609375q-0.09375,0.046875-0.8671875,0.515625t-1.2421875,0.703125q0.1875-0.09375,1.1484375-0.5390625t1.546875-0.796875t0.9140625-0.7734375z M217.69359375,140.6875q0,0.1875-4.03125,2.203125q-0.796875,0.46875-2.484375,1.4296875t-2.53125,1.4296875q-6.515625,3.5625-9.28125,5.671875q0.421875-0.234375,3.9609375-2.296875t5.4140625-3.09375q0.234375-0.140625,6.28125-3.65625q0.234375-0.140625,0.8671875-0.4453125t1.125-0.609375t0.6796875-0.6328125z M225.00609375,134.5q0.1875-0.1875,0.5625-0.1875l0.28125,0q0.375,0,0.5625-0.28125q0.703125-0.703125,1.546875-1.40625q2.8125-2.4375,4.40625-3.65625q-5.625,3.328125-8.90625,5.4375l0.75,0q0.609375,0,0.796875,0.09375z M235.27171875,133.9375l0.09375-0.09375l-0.09375,0.09375q0.421875-0.28125,0.75-0.28125q0.234375,0,0.7265625,0.09375t0.7265625,0.09375q0.28125,0,0.46875-0.09375q1.59375-1.40625,3.375-2.671875q7.125-5.25,9.375-6.84375q-2.296875,1.3125-8.34375,5.109375q-0.75,0.46875-2.2265625,1.4296875t-2.2734375,1.4296875q-0.1875,0.09375-0.84375,0.515625t-1.21875,0.8203125t-0.515625,0.3984375z M242.06859375,133.84375l-0.09375,0l0.09375,0q1.359375,0,2.109375-0.1875q0.234375-0.234375,0.7734375-0.7265625t0.7734375-0.7265625q0.890625-0.84375,4.21875-3.515625q-1.453125,0.890625-4.4765625,2.6484375t-4.5234375,2.6015625l0.28125,0q0.09375,0,0.3046875-0.046875t0.5390625-0.046875z M251.30296875,132.625l-0.703125,0.375q-0.09375,0,1.171875-0.703125q-0.09375,0.140625-0.46875,0.328125q-0.09375,0.046875-0.7734375,0.3984375t-1.359375,0.7265625t-1.40625,0.796875t-1.171875,0.7734375t-0.3984375,0.5390625q7.265625-4.21875,10.078125-6.328125q-0.84375,0.5625-2.5078125,1.546875t-2.4609375,1.546875z M247.74046875,138.859375q0,0.1875,0.1875,0.1875q0.09375,0,0.46875-0.375q-0.9375,0-0.9375-0.421875q0-0.46875,0.9375-1.359375t1.453125-1.21875q0.5625-0.421875,1.6640625-1.3359375t1.6171875-1.3359375q-3.140625,2.015625-6.5625,3.84375q0.140625,0.421875,0.5859375,1.078125t0.5859375,0.9375z M249.28734375,140.453125l-0.1875,0.140625q0.09375-0.046875,0.1875-0.140625q-0.140625,0.140625-0.703125,0.421875l0,0.1875q0.28125-0.1875,0.703125-0.609375z M243.33421875,148.421875l-0.515625,0.421875q0.140625-0.140625,0.515625-0.421875l-0.28125,0.09375q-0.09375,0-0.2109375-0.046875t-0.2109375-0.046875q-0.046875,0-0.09375,0.046875t-0.1171875,0.09375t-0.1640625,0.09375q-0.421875,0-0.5625,0.46875q-0.1875,0.234375-0.5859375,0.65625t-0.5859375,0.65625q0.46875-0.328125,1.40625-1.0078125t1.40625-1.0078125z M240.33421875,149.125l0.09375,0q0.046875,0,0.1171875-0.09375t0.140625-0.2109375t0.1171875-0.1640625l-0.09375,0q-0.375,0-0.375,0.46875z M240.80296875,154.375l0.140625-0.09375q-0.140625,0-0.140625,0.09375q0.1875-0.140625,0.703125-0.3984375t0.84375-0.5390625q0.46875-0.609375,1.078125-1.078125q0.328125-0.28125,1.0078125-0.84375t1.0078125-0.84375q1.828125-1.546875,5.671875-4.453125q7.40625-5.25,10.171875-7.078125q-0.421875,0.046875-0.796875,0.140625t-0.84375,0.328125t-0.6796875,0.3515625t-0.7734375,0.4921875t-0.65625,0.421875q-0.65625,0.46875-1.9453125,1.2890625t-1.7109375,1.1015625q-2.953125,1.875-3.5625,2.203125q-0.328125,0.1875-0.5390625,0.375t-0.421875,0.515625t-0.3515625,0.46875q-1.875,2.203125-3,1.921875q-0.140625-0.09375-0.3046875-0.1875t-0.2578125-0.1640625t-0.1875-0.0703125t-0.609375,0.328125q-1.640625,1.171875-1.921875,1.40625q-1.125,0.703125-2.109375,1.546875q0,0.140625,0.046875,0.4921875t0.046875,0.4921875q0.046875,0.328125-0.1171875,0.984375t-0.1640625,0.890625l0,0.140625q0.09375-0.09375,0.375-0.234375z M247.83421875,154.375l0.09375,0l-0.09375,0l0.46875,0.234375l0-0.328125q0-0.421875,0.3046875-0.9375t0.65625-0.84375t0.8671875-0.7734375t0.65625-0.5859375q1.875-1.5,4.546875-3.375q-6.796875,4.640625-9.328125,6.234375q0.75,0.375,1.828125,0.375z M254.34984375,154.09375l0.09375,0l-0.1875,0l0.09375,0q0.09375,0,0.421875-0.046875t0.46875-0.046875q0.28125,0,0.65625,0.1875q0.1875-0.1875,0.5859375-0.609375t0.5859375-0.609375q0.46875-0.46875,1.4296875-1.453125t1.4296875-1.453125q0.984375-0.984375,5.578125-5.34375q-0.890625,0.1875-2.015625,0.75t-1.8046875,1.03125t-1.96875,1.4765625t-1.6171875,1.2421875q-0.75,0.515625-2.25,1.6640625t-2.6953125,2.015625t-2.3671875,1.5703125q0.234375,0.046875,0.6328125-0.1640625t0.6328125-0.2109375q0.375,0,0.5625,0.1875q0.9375-0.1875,1.734375-0.1875z M270.19359375,154.46875q0.1875,0,0.75-1.171875t1.171875-2.625t0.65625-1.546875q-3.609375,2.109375-8.90625,5.0625l1.171875,0q2.4375,0,5.15625,0.28125z M273.00609375,154.796875q0.09375-0.046875,0.234375-0.09375t0.234375-0.09375q-0.09375-0.140625-0.234375-0.4453125t-0.234375-0.4453125q-0.84375,0.421875-1.546875,0.984375q0.09375,0.09375,0.28125,0.09375q0.140625,0,0.421875-0.046875t0.421875-0.046875q0.328125,0,0.421875,0.09375z M327.04078125,149.78125l0.09375,0l-0.09375,0q0.375,0.140625,0.375,0.46875q0,0.5625-1.546875,2.90625q0.1875,0.5625,0.1875,1.3125l0,0.421875q0.09375,0.1875,0.09375,0.9375l0,0.28125q-0.46875,0.984375-1.78125,0.984375q-1.6875,0-2.34375-0.28125q-0.234375,0.046875-0.7734375,0.3515625t-0.9140625,0.3046875q-0.515625,0-0.796875-0.28125q-0.375,0.1875-0.84375,0.1875q-0.28125,0.09375-1.359375,0.09375q-0.140625-0.046875-0.328125-0.1171875t-0.328125-0.0703125l-0.28125,0q-0.09375,0-0.515625,0.09375t-0.46875,0.09375q-0.421875,0-1.265625-0.28125l-0.65625,0q-0.75,0-0.9375-0.1875q-0.09375,0.09375-0.515625,0.09375q-0.375,0-0.75-0.1875l-0.46875,0q-0.703125,0-1.078125-0.09375q-0.28125,0.1875-0.84375,0.1875l-0.796875,0l-0.5625,0q-0.9375,0-1.125-0.28125q-0.5625,0.1875-0.703125,0.1875l-0.75,0l-0.375,0q-0.375,0.1875-0.796875,0.1875q-0.375,0-0.5625-0.09375q-0.140625,0.046875-0.4921875,0.2109375t-0.5859375,0.1640625l-0.09375,0q-0.046875,0-0.2109375,0.046875t-0.2578125,0.046875q-0.234375,0-0.7734375-0.09375t-0.7734375-0.09375q-1.734375,0-2.578125-0.28125q-0.1875,0-0.7734375,0.1875t-0.7734375,0.1875q-0.046875,0-0.1875,0.046875t-0.1875,0.046875q-0.890625,0-1.453125-0.5625q-0.84375,0.28125-0.9375,0.28125l-0.84375,0.09375l0,0l-0.234375,0.09375q-0.28125,0-0.46875-0.375q-0.65625,0.28125-0.65625,0.375l-0.28125,0q-0.65625,0-1.453125-0.3984375t-0.84375-0.8671875q-0.234375-0.703125-0.234375-1.640625q0-1.078125,0.234375-2.015625l0-1.5q0-0.84375-0.140625-1.546875q-0.375,0.1875-0.5625,0.1875q0-0.515625,0.46875-0.65625q-0.140625-0.28125-0.28125-0.28125q-0.046875,0-0.140625,0.046875t-0.140625,0.046875q0.421875-0.28125,0.515625-0.375t0.140625-0.515625q0-0.703125,0.890625-1.125q0.09375-0.09375,0.5625-0.09375q0.796875,0,1.171875,0.1875q0.140625,0,0.3515625,0.1171875t0.3046875,0.1640625q0.5625-0.28125,1.078125-0.28125l0.1875,0l0.65625,0l0.375,0q0.234375,0,0.5859375-0.09375t0.5859375-0.09375q0.1875,0,0.6796875-0.328125t0.8671875-0.28125q0.234375,0,0.46875,0.09375t0.28125,0.09375q0.1875,0,0.28125-0.09375q0.375-0.234375,0.4453125-0.7265625t0.2109375-0.6796875q0-0.09375-0.09375-0.28125t-0.09375-0.234375q0-0.09375,0.1875-0.28125q0.421875-0.328125,0.421875-0.75q-0.09375-0.28125-0.09375-1.078125l0-0.46875q-0.46875,0.46875-1.078125,0.46875q-0.375,0-0.375-0.46875t0.6328125-1.078125t0.7265625-0.75l0-0.375q0-1.171875,0.375-2.109375q0-0.09375-0.046875-0.421875t-0.046875-0.5625q0-0.1875,0.046875-0.515625t0.046875-0.421875q-0.09375-0.28125-0.09375-1.265625q0-1.03125,0.09375-1.21875l0-0.703125q0-1.078125,0.1875-1.828125q0-0.09375,0.046875-0.234375t0.046875-0.234375q0-0.796875-0.46875-2.203125l-0.28125,0q-0.375,0-0.6796875-0.1875t-0.3046875-0.375q0-0.234375,0.46875-0.46875q0.796875-0.328125,0.796875-0.984375l0-0.65625l0-0.515625l0-0.375q0-0.234375,0.046875-0.75t0.046875-0.75l0-0.609375q0-1.078125,0.1875-1.828125q-0.46875-1.40625-0.46875-3.328125q0-0.703125,0.1875-1.640625q0.09375-0.28125,0.09375-0.984375q0-0.46875-0.140625-1.359375t-0.140625-1.21875q0-0.140625,0.046875-0.3515625t0.046875-0.3046875q-0.09375-0.1875-0.09375-0.609375q0-0.234375,0.09375-0.75t0.09375-0.75l0-0.1875q0-0.515625,0.28125-0.796875l0-0.375q0-0.984375,0.09375-1.078125l0-0.46875l0-0.84375q0-1.265625-0.28125-1.734375q-0.609375-0.890625-0.890625-1.921875q-0.046875-0.09375-0.9375-0.375q-0.421875,0.28125-1.171875,0.28125l-0.1875,0q-0.65625-0.1875-0.65625-0.65625q0-0.234375,0.1875-0.421875l-0.09375,0q-0.1875,0-0.8671875,0.2578125t-0.8671875,0.2578125q-0.28125,0-0.65625-0.2578125t-0.703125-0.2578125q-0.140625,0-0.421875,0.046875t-0.421875,0.046875q-0.1875,0-0.5625-0.1875q-0.09375,0.09375-0.609375,0.09375q-0.375,0-0.46875-0.09375q-0.84375-0.46875-0.84375-2.203125q0-0.234375,0.046875-0.6796875t0.046875-0.6328125q0-0.375-0.1875-1.078125t-0.234375-0.9375q-0.1875,0.1875-0.5625,0.1875q-0.46875,0-0.46875-0.28125q0-0.046875,0.1875-0.421875q0.46875-0.5625,0.75-1.40625q0-1.96875,1.171875-2.53125q0.375-0.1875,0.5625-0.1875q0.28125,0,0.9375,0.140625t0.796875,0.140625l0.1875,0q0.375-0.1875,0.984375-0.1875q0.65625,0,1.21875,0.1875q0.84375-0.28125,1.171875-0.28125q0.28125,0.046875,1.546875,0.0703125t1.828125,0.3046875q0.1875-0.09375,0.9375-0.09375q0.1875,0,0.4921875-0.09375t0.4921875-0.09375q0.234375,0,0.75-0.09375t0.75-0.09375l0.1875,0q0.234375,0,0.703125-0.09375t0.65625-0.09375q0.375,0,0.46875,0.09375q0.84375-0.28125,1.265625-0.28125l0.1875,0q0.984375,0.46875,2.671875,0.65625q0.140625,0,0.375,0.046875t0.328125,0.046875q0.328125,0,1.21875-0.375q0.5625-0.28125,0.890625-0.28125q0.421875,0,0.5625,0.46875l0.1875,0q0.375,0,0.5625,0.1875q0.140625,0,0.4453125-0.046875t0.4453125-0.046875l0.28125,0q0.46875,0,0.65625-0.09375t0.609375-0.09375l0.84375,0l0.375,0l0.28125,0q0.140625,0,0.5390625,0.09375t0.5390625,0.09375l0.1875,0q0.375-0.1875,0.75-0.1875q0.609375,0,1.359375,0.1875q0.28125-0.09375,0.890625-0.09375q0.1875-0.09375,0.46875-0.09375q0.375,0,0.5625,0.1875q0.28125-0.28125,0.5625-0.28125q0.328125,0,0.515625,0.1875q0.09375-0.09375,0.375-0.09375q0.140625,0,0.3984375,0.046875t0.3515625,0.046875q0.375-0.1875,0.703125-0.1875l0.28125,0q0.75,0.234375,1.2421875,0.7734375t0.4921875,1.2421875q0,0.046875-0.0703125,0.2109375t-0.0703125,0.2578125q0.328125,0.65625,0.328125,1.359375q0,0.890625-0.328125,1.546875q0,0.234375-0.1875,0.7734375t-0.1875,0.7734375l0,0.1875q0.09375-0.046875,0.328125-0.28125t0.4453125-0.375t0.3984375-0.140625q0.234375,0,0.375,0.328125q0.09375,0.09375,0.09375,0.28125q0,0.140625-0.1171875,0.234375t-0.3046875,0.1875t-0.234375,0.140625q0.28125,0.140625,0.28125,0.375q0,0.46875-0.65625,0.796875q-0.421875,0.234375-0.421875,0.375l0,0.1875q0,0.09375-0.09375,0.28125q-0.328125,0.796875-1.59375,1.171875q-0.09375,0-0.28125,0.046875t-0.234375,0.046875q-0.09375,0-0.3046875-0.046875t-0.3515625-0.046875q-0.1875,0-0.75,0.28125l-0.328125,0.09375q-0.140625,0-0.2109375-0.1171875t-0.1640625-0.3046875t-0.1875-0.28125q-0.984375,0.984375-1.734375,0.984375q-0.09375,0-0.28125-0.046875t-0.28125-0.046875q-0.1875,0.140625-0.703125,0.515625t-0.84375,0.703125t-0.46875,0.703125q0.28125-0.09375,0.609375,0.140625t0.328125,0.515625q0,0.234375-0.28125,0.375q-0.9375,0.375-1.03125,0.796875q0.09375,0.28125,0.09375,0.65625l0,0.65625l0,0.328125q0.046875,0.234375,0.0703125,0.328125t0.046875,0.1171875t0.140625,0.1171875t0.2109375,0.28125q0,0.234375-0.375,1.359375q0.1875,0.375,0.1875,1.5q0,1.546875-0.28125,2.53125q-0.140625,0.375-0.1875,0.84375t-0.046875,1.1015625t-0.046875,1.0078125q0.1875-0.1875,0.375-0.1875q0.46875,0,0.46875,0.46875q-0.140625,0.46875-0.65625,0.703125q-0.375,0.234375-0.375,0.84375q0,0.140625,0.046875,0.3984375t0.046875,0.3515625q0.09375,0.28125,0.09375,0.890625q0,0.5625-0.09375,0.84375q0.1875,1.125,0.1875,2.015625l0,0.375q0.1875,0.375,0.1875,1.359375t-0.1875,2.296875q0.1875,1.125,0.1875,1.734375q0,0.421875-0.046875,1.125t-0.046875,0.984375q0.421875-0.28125,0.65625-0.28125q0.46875,0,0.46875,0.46875q0,0.375-0.28125,0.796875q-0.09375,0.1875-0.84375,0.9375l0,0.703125l0,0.65625l0,0.375q0.28125,1.265625,0.28125,2.859375q0,0.28125-0.046875,0.796875t-0.046875,0.75q0,1.640625-0.09375,2.203125q0.1875,0.9375,0.1875,1.640625q0,0.1875-0.046875,0.5625t-0.046875,0.515625l0,0.28125q0,0.984375,0.375,1.921875l0.28125,0q1.078125,0,1.078125,0.5625q0,0.140625-0.375,0.375q0.28125,0.1875,1.078125,0.28125t1.125,0.328125q0.09375-0.046875,0.234375-0.09375t0.234375-0.09375t0.1875-0.046875q0.046875,0,0.2109375,0.0703125t0.2578125,0.0703125l0.1875,0q0.140625,0,0.4453125-0.1171875t0.4453125-0.1171875l0.1875,0q0.046875,0,0.28125-0.046875t0.375-0.046875q0.703125,0,1.453125,0.234375t0.9375,0.5625q0.328125,0.515625,0.328125,0.9375q0,0.28125-0.1171875,0.890625t-0.1171875,0.84375l0,0.28125q0.5625-0.28125,0.796875-0.28125l0.09375,0z M321.93140625,152.6875l0.1875-0.09375q0-0.09375-0.375,0.1875l0.1875-0.09375q0.140625-0.140625,0.609375-0.375t0.7734375-0.4921875t0.3515625-0.4921875l0.09375-0.5625q-0.421875,0.46875-0.984375,0.9609375t-1.03125,0.84375t-1.1953125,0.84375t-1.1015625,0.7734375q0.46875-0.328125,1.3359375-0.84375t1.1484375-0.65625z M320.71265625,149.03125l0.09375,0l-0.09375,0q0.140625,0-1.171875,1.546875t-1.640625,1.875q3.421875-2.0625,4.734375-2.671875q0.5625-0.1875,0.84375-0.1875t0.375,0.09375l0-0.28125q0-0.234375-0.0703125-0.2578125t-0.375-0.046875t-0.5859375-0.0703125l-0.46875,0l-1.078125,0l-0.5625,0z M295.07203125,154.375l0.09375-0.09375l-0.09375,0.09375q0.328125,0.046875,0.703125-0.1171875t0.8671875-0.4921875l0.6328125-0.421875q0.703125-0.421875,2.15625-1.2421875t2.15625-1.2421875q1.078125-0.65625,3.234375-1.875t3.28125-1.875q-8.625,4.3125-13.03125,7.265625z M301.68140625,144.71875l1.828125-1.359375q0-0.046875-0.4453125,0.28125t-0.9140625,0.6796875t-0.46875,0.3984375q6.515625-4.59375,8.671875-5.859375q0.28125-0.140625,3.328125-2.109375q0.046875-0.046875,0.2109375-0.1875t0.328125-0.234375t0.3515625-0.09375q0.09375,0,0.28125,0.1875q0-0.984375-0.1875-2.671875q-0.796875,0.65625-2.4609375,1.8515625t-1.8515625,1.3359375q0.609375-0.328125,1.6875-0.9609375t1.640625-0.9609375q0.1875-0.09375,0.46875-0.09375q0.421875,0,0.421875,0.28125q0,0.328125-0.515625,0.65625q-1.265625,0.796875-3.046875,2.015625q-3.140625,2.0625-6.328125,4.21875q-0.421875,0.28125-1.3125,0.8671875t-1.3125,0.8671875q-0.09375,0.046875-0.3515625,0.234375t-0.46875,0.328125t-0.421875,0.3515625t-0.2578125,0.3515625q0.28125-0.046875,0.6328125-0.1875t0.4921875-0.1875z M301.86890625,142.890625q-0.09375,0.046875-0.375,0.2109375t-0.46875,0.28125t-0.1875,0.2578125q0.28125-0.1875,1.03125-0.75z M314.85328125,137.125l-0.09375,0.09375q0.09375,0,0.09375-0.09375z M314.24390625,137.125l-0.09375,0l0.09375,0z M314.75953125,138.859375l-0.796875,0.5625q0,0.046875,0.1875-0.0703125t0.3984375-0.28125t0.2109375-0.2109375q-0.796875,0.515625-3.1875,2.1328125t-3.421875,2.3203125t-3.1171875,2.15625t-3.375,2.4375t-2.953125,2.34375t-3.0703125,2.625q5.25-3.375,15.5625-8.390625q0.234375-0.09375,1.0078125-0.5625t1.4765625-0.796875t1.171875-0.328125l0-0.703125q0-0.375-0.09375-1.1953125t-0.09375-1.1953125q0-0.140625,0.046875-0.421875t0.046875-0.421875z M303.69703125,154.375l0.1875-0.09375l-0.1875,0.09375q1.3125-0.703125,3.5625-2.296875q-0.375,0.234375-1.1953125,0.7734375t-1.1953125,0.7734375l-1.265625,0.65625z M299.10328125,154.703125q0.46875,0,1.171875-0.421875t1.5-1.03125t1.078125-0.796875q0.515625-0.28125,1.8046875-1.125t2.0390625-1.265625q-3.984375,2.34375-7.875,4.640625l0.28125,0z M305.90015625,154.09375l0.09375,0l-0.09375,0q0.421875,0.046875,0.890625-0.2109375t1.1484375-0.84375t0.7734375-0.6796875q1.125-0.84375,2.390625-1.828125q-0.515625,0.375-1.6171875,1.171875t-1.6640625,1.171875q-1.6875,1.265625-1.921875,1.21875z M308.52515625,154.28125q0.234375,0.09375,0.609375-0.1171875t0.8203125-0.5625t0.5859375-0.4453125q-0.328125,0.1875-1.0078125,0.5625t-1.0078125,0.5625z M311.47828125,153.625q1.546875-0.9375,1.546875-1.03125q-0.46875,0.28125-1.546875,1.03125q1.359375-0.84375,3.9375-2.5078125t3.9375-2.4609375q-0.140625-0.140625-0.375-0.140625q-0.421875,0-1.0078125,0.375t-1.1953125,0.890625t-0.796875,0.65625q-0.796875,0.515625-2.2734375,1.59375t-2.2265625,1.59375z M316.16578125,147.953125q-0.1875-0.140625-1.3125,0.703125t-2.4140625,1.9453125t-1.4296875,1.1953125q1.03125-0.609375,3-1.734375t2.953125-1.734375l-0.75-0.375l-0.046875,0z M315.41578125,146.40625l0-0.09375l0,0.09375q0.09375-0.09375,0.09375-0.1875q0-0.28125-0.1875-0.65625q-0.09375,0.046875-0.28125,0.1875t-0.28125,0.1875l0.09375,0q0.421875,0,0.5625,0.46875z M307.16578125,135.578125q0.703125-0.375,2.0859375-1.1953125t2.0390625-1.1953125q0.140625-0.09375,1.1953125-0.5625t1.6171875-0.9375t0.5625-0.984375q-5.4375,3.609375-7.5,4.875z M300.93140625,134.125l0.28125-0.09375q-0.28125,0-0.28125,0.09375q0.5625-0.09375,1.2421875-0.3984375t1.078125-0.515625t1.1953125-0.7265625t0.984375-0.65625q3.140625-2.0625,7.03125-4.96875q-5.671875,3.609375-8.765625,5.34375q-0.1875,0.09375-1.03125,0.421875t-1.2890625,0.6796875t-0.4453125,0.8203125z M301.21265625,130.703125l0.1875-0.234375l-0.1875,0.234375q0.890625-1.03125,1.921875-1.921875q-1.265625,0.5625-2.015625,0.65625q0.09375,0.375,0.09375,1.265625z M301.02515625,136.9375q0.9375-0.75,2.71875-2.296875t2.671875-2.34375q-3.234375,2.0625-4.546875,2.53125q-0.140625,0.046875-0.421875,0.09375t-0.3515625,0.1171875t-0.0703125,0.3515625q0.09375,0.1875,0.09375,0.75q0,0.609375-0.09375,0.796875z M314.57203125,126.4375q-2.15625,1.875-6.4921875,5.625t-6.4921875,5.625q4.171875-2.8125,10.546875-6.515625q0.140625-0.09375,0.8671875-0.4453125t1.1953125-0.703125t0.46875-0.6796875q-0.09375-0.46875-0.09375-1.453125l0-1.453125z M314.66578125,125.5l0-0.09375l0,0.1875l0-0.09375z M314.57203125,121.375q0,0.140625-2.203125,1.6171875t-2.8125,1.8515625q-1.875,1.21875-4.21875,3.234375q-3.09375,2.4375-3.9375,3.9375q2.34375-1.875,8.625-5.34375l4.640625-2.53125q0-0.28125-0.09375-1.03125t-0.09375-1.078125q0-0.140625,0.046875-0.3515625t0.046875-0.3046875z M314.38453125,119.078125l0-0.09375l0,0.09375l0-0.375q-2.15625,1.640625-6.5390625,4.875t-6.5390625,4.875q1.96875-0.609375,6.140625-3.328125q1.03125-0.65625,2.765625-1.921875t2.4375-1.734375q0.65625-0.5625,1.734375-1.265625l0-1.125z M323.75953125,97.375l-0.5625,0.5625q0.09375-0.046875,0.2109375-0.1171875t0.1875-0.09375t0.1171875-0.1171875t0.046875-0.234375z M324.04078125,94.796875q-0.046875,0.140625-0.75,0.46875t-1.546875,0.65625t-0.9375,0.375q-3.75,1.96875-8.15625,4.828125q-2.296875,1.40625-10.078125,6.515625q-0.28125,0.1875-0.8671875,0.5859375t-0.8671875,0.5859375q-0.09375,0.1875-0.09375,0.65625q0,0.5625-0.09375,0.84375q0.1875,1.125,0.1875,1.828125q0,0.609375-0.09375,0.796875q1.359375-0.890625,4.03125-2.625t4.03125-2.671875q2.90625-2.015625,4.6875-3.375q0.140625-0.09375,0.3984375-0.2578125t0.3515625-0.2109375t0.2578125-0.1875t0.234375-0.328125t0.1171875-0.421875q0.328125-0.9375,0.46875-1.171875q0-0.703125,0.328125-1.40625t0.84375-0.890625q0.5625-0.28125,2.671875-0.75q0.046875,0,0.1640625-0.0703125t0.2109375-0.0703125q0.140625,0,0.375,0.234375q0.09375-0.046875,0.4453125-0.2109375t0.5390625-0.2109375q0.328125-0.46875,0.75-0.46875l0.1875,0q0.421875-0.28125,0.890625-0.75q0.84375-0.84375,1.3125-2.296875z M300.83765625,113.96875l0.1875-0.09375z M300.93140625,118.703125q2.109375-1.453125,6.28125-4.5234375t6.28125-4.5234375q-4.03125,2.25-7.6875,4.6875q-0.046875,0.046875-4.21875,2.71875q-0.75,0.515625-0.75,0.75q0,0.046875,0.046875,0.328125t0.046875,0.5625z M306.50953125,112.421875l0.65625-0.375l-1.546875,0.890625q0.328125-0.140625,0.890625-0.515625q0.5625-0.328125,2.1796875-1.1953125t2.71875-1.5703125t1.9921875-1.546875q-0.796875,0.28125-1.640625,0.75t-1.8984375,1.125t-1.5234375,0.9375q-1.875,1.078125-4.171875,2.671875q-0.09375,0.046875-1.03125,0.6328125t-1.6875,1.1015625t-0.703125,0.65625q0.328125-0.28125,5.765625-3.5625z M301.11890625,107.171875l0.09375,0l0-0.09375l-0.09375,0.09375l0.09375,0q0.1875,0,0.65625-0.46875q1.171875-0.84375,2.109375-1.640625q1.125-0.796875,3.28125-2.484375t3.28125-2.53125q1.03125-0.796875,2.90625-2.25t3.421875-2.6484375t2.953125-2.2734375q-0.703125-0.46875-5.0625,2.671875q-4.171875,2.625-7.3125,4.875q-0.5625,0.375-2.2265625,1.5234375t-2.6484375,1.7578125q-0.703125,0.46875-1.265625,0.46875l-0.1875,0q0.09375,0.375,0.09375,1.453125t-0.09375,1.546875z M317.05640625,92.6875q-0.1875-0.046875-0.7265625,0.3515625t-1.21875,1.0078125t-0.7265625,0.65625q3.140625-1.921875,3.328125-2.015625l-0.09375,0l-0.375,0l-0.1875,0z M313.49390625,93.71875l-0.9375,0.5625l1.03125-0.65625l-0.09375,0.09375q-2.390625,1.5-10.640625,6.796875q-0.09375,0.09375-0.6796875,0.46875t-1.1484375,0.75t-0.5625,0.421875q0.09375,0.1875,0.28125,0.6328125t0.28125,0.6328125q0.9375-0.890625,2.0859375-1.7578125t2.8359375-2.0390625t2.25-1.59375q0.328125-0.234375,3.1640625-2.296875t4.2421875-3.140625q-0.421875,0-2.109375,1.125z M300.93140625,122.921875l0,0.28125q1.171875-0.9375,4.078125-3.1640625t4.9453125-3.9140625t3.7265625-3.46875q-1.359375,0.75-4.1015625,2.3203125t-4.1484375,2.3671875q-1.640625,0.890625-4.03125,2.390625q-0.46875,0.234375-0.46875,1.359375l0,1.21875l0,0.609375z M314.75953125,112.84375l-0.609375,0.65625q0.609375-0.5625,0.609375-0.65625q-1.21875,1.453125-2.6953125,2.7421875t-3.890625,3.1640625t-3.0234375,2.34375q0.796875-0.46875,3.046875-1.78125t3.46875-2.0625q2.390625-1.3125,2.71875-1.546875q0.375-0.140625,0.375-2.859375z M315.04078125,110.125q-0.09375-0.09375-0.09375-0.375q-1.21875,0.9375-3.796875,2.765625t-3.796875,2.71875q3.515625-2.0625,4.5-2.578125q0.140625-0.09375,1.1015625-0.5859375t1.5234375-0.9609375t0.5625-0.984375z M314.85328125,106q-3.84375,2.203125-4.21875,2.390625l0.609375-0.328125q0.65625-0.28125,1.4765625-0.5859375t1.3359375-0.3046875q0.703125,0,0.703125,0.46875q0,0.046875-0.046875,0.1875t-0.046875,0.1875q0.28125-0.140625,0.28125-0.5625q0-0.1875-0.046875-0.609375t-0.046875-0.5625l0-0.28125z M322.82203125,92.6875l-0.375,0q-0.890625,0-2.34375,1.03125q-1.265625,1.078125-4.21875,3.28125q-1.21875,0.984375-3.515625,2.7421875t-3,2.3203125q8.25-5.203125,12.1875-7.171875q1.640625-0.796875,2.390625-0.984375q0.28125-0.09375,0.28125-0.28125l0-0.375q-0.046875-0.140625-0.140625-0.2578125t-0.234375-0.1640625t-0.2578125-0.0703125t-0.375-0.046875t-0.3984375-0.0234375z M313.02515625,92.96875l-0.984375,0.5625q0.234375-0.1875,0.984375-0.5625q-0.1875,0.09375-0.46875,0.09375t-0.65625-0.046875t-0.515625-0.046875l-0.28125,0q-0.1875,0.046875-0.46875,0.09375t-0.421875,0.09375t-0.3515625,0.1640625t-0.4921875,0.3046875q-0.984375,0.703125-4.03125,3.09375q-4.359375,3.46875-5.390625,4.5l0.09375,0.09375q1.96875-1.21875,6.3046875-4.078125t6.6796875-4.265625z M293.43140625,92.875q-0.46875,0.09375-1.7578125,0.75t-1.2890625,0.984375q0.46875,0.9375,0.46875,2.203125l0,0.1875q0.515625-0.84375,1.4765625-2.3671875t1.1015625-1.7578125z M295.91578125,92.6875q-0.703125-0.046875-1.171875,0.2109375t-0.609375,0.46875t-0.609375,1.0078125q-1.21875,2.0625-1.828125,2.90625q0.375-0.234375,3.1640625-1.8046875t4.2421875-2.5078125l-0.375,0q-0.46875,0-1.4296875-0.140625t-1.3828125-0.140625z M302.85328125,97.46875l-1.078125,0.75q0.046875,0,1.078125-0.75q-0.1875,0.140625-1.5,1.0078125t-2.0625,1.2890625l0.28125,0.5625q1.78125-1.78125,3.28125-2.859375z M300.83765625,125.125l0-0.09375l0,0.09375q-0.046875-0.140625,0.9375-0.65625t2.109375-1.078125t1.265625-0.65625q0.84375-0.421875,2.4375-1.40625t1.875-1.125q3.28125-2.109375,4.21875-3.046875q-1.125,0.703125-3.375,1.9921875t-3.328125,1.9453125q-0.75,0.421875-2.2265625,1.2890625t-2.2734375,1.2890625q-0.1875,0.09375-0.5390625,0.28125t-0.515625,0.3046875t-0.3515625,0.3515625t-0.234375,0.515625z M305.90015625,123.859375q-3.046875,1.828125-3.9375,2.296875q-0.09375,0.046875-0.3046875,0.1640625t-0.28125,0.1640625t-0.2109375,0.1171875t-0.1640625,0.140625t-0.0703125,0.1640625t-0.0703125,0.1875t-0.0234375,0.234375l0,0.375q0.9375-0.75,2.6484375-2.0390625t2.4140625-1.8046875z M300.74390625,142.1875q0,0.046875,0.8671875-0.4921875t1.8046875-1.171875t1.171875-0.8203125q0.75-0.46875,2.25-1.4765625t2.25-1.4765625q0.09375-0.09375,1.6640625-1.125t2.8125-2.015625t1.1015625-1.3125q-1.359375,0.796875-4.125,2.390625t-4.125,2.4375q-4.78125,2.765625-5.015625,2.859375q-0.84375,0.46875-0.84375,0.984375q0,0.09375,0.1875,1.21875z M292.30640625,149.59375l0.09375,0l-0.09375,0q-0.140625,0-0.609375-0.09375t-0.65625-0.09375q-0.46875,0-0.5625,0.28125q0.09375,0.28125,0.09375,1.640625q0,0.75-0.09375,1.03125q0.703125-0.328125,1.40625-0.796875t1.5703125-1.0546875t1.3359375-0.9140625l-1.640625,0l-0.84375,0z M291.32203125,154.609375q0.046875,0,0.1875-0.0703125t0.1875-0.0703125q0.140625,0,0.375,0.0703125t0.328125,0.0703125q0.234375,0,0.5625-0.328125q0.375-0.46875,1.21875-1.3125q1.3125-1.3125,5.015625-4.21875q5.25-4.03125,15.046875-10.6875q-0.65625,0.140625-1.359375,0.4921875t-1.078125,0.609375t-1.1953125,0.9140625t-1.0546875,0.796875q-3.5625,2.34375-3.75,2.484375q-0.515625,0.328125-2.625,1.6171875t-3.234375,2.1328125q-0.140625,0.703125-0.5390625,0.984375t-1.078125,0.4453125t-1.0546875,0.3984375q-0.09375,0.421875-0.4453125,0.703125t-0.8203125,0.234375q-0.375,0.234375-1.1484375,0.7734375t-1.1484375,0.7734375q-2.15625,1.5-3.140625,2.015625q0,0.84375-0.09375,1.03125q0,0.328125,0.28125,0.328125q0.09375,0,0.3046875-0.09375t0.2578125-0.09375z M317.05640625,151.234375l-0.75,0.46875l0.84375-0.5625l-0.09375,0.09375q-0.515625,0.328125-2.34375,1.4296875t-2.765625,1.7109375q0.703125,0.234375,0.796875,0.234375t0.28125-0.0703125t0.28125-0.0703125q0.234375,0,0.375,0.09375l0.1875,0.046875q0.1875,0,0.515625-0.328125q0.09375-0.046875,1.3125-1.03125q2.765625-2.53125,3.46875-3.375q-1.640625,1.03125-2.109375,1.359375z M321.74390625,151.328125l-0.84375,0.46875q0.234375,0,0.84375-0.46875q-3.328125,1.78125-5.765625,3.46875l0.421875,0q0.328125,0,0.6328125-0.09375t0.4453125-0.1640625t0.5625-0.3984375t0.5625-0.421875q0.515625-0.375,1.546875-1.1953125t1.59375-1.1953125z M323.29078125,154.375l0.5625,0q-0.09375-0.375-0.09375-1.21875l0-0.46875q-0.984375,0.46875-2.296875,1.3125q0.234375,0.046875,0.84375,0.1875t0.984375,0.1875z"/></svg>
